<svg width="24" height="13" viewBox="0 0 24 13" fill="none" xmlns="http://www.w3.org/2000/svg">
<path fill-rule="evenodd" clip-rule="evenodd" d="M23.1822 11.5897C23.0752 12.1598 22.5617 12.606 21.9548 12.6562C21.6412 12.6821 21.3499 12.6098 21.0795 12.4389C20.9929 12.3842 20.4197 11.8352 16.4956 8.04811L12.0106 3.71983L9.10516 6.52547C7.50719 8.06856 5.48378 10.0188 4.60869 10.8593C2.87458 12.5248 2.94506 12.4617 2.7088 12.5601C2.53788 12.6312 2.4076 12.6591 2.21633 12.6656C1.88724 12.6768 1.60586 12.5928 1.34891 12.4066C0.893698 12.0768 0.696106 11.5131 0.851696 10.9882C0.890183 10.8583 0.990742 10.6635 1.07364 10.5581C1.11626 10.504 3.0522 8.62774 6.14425 5.64391C10.1269 1.80065 11.1635 0.806006 11.2324 0.761885C11.4773 0.60492 11.7206 0.532904 12.0049 0.533295C12.2881 0.533684 12.5189 0.601292 12.7658 0.756231C12.8518 0.810181 13.4778 1.4102 17.866 5.64413C20.917 8.5879 22.8936 10.5032 22.9335 10.5544C23.0531 10.708 23.1341 10.8854 23.1767 11.0874C23.2044 11.2182 23.2069 11.4576 23.1822 11.5897Z" fill="white"/>
</svg>
