<svg width="22" height="22" viewBox="0 0 22 22" fill="none" xmlns="http://www.w3.org/2000/svg">
<path fill-rule="evenodd" clip-rule="evenodd" d="M4.94129 2.70047V3.4009L4.29843 3.41582C3.76241 3.42828 3.61711 3.44338 3.42408 3.50665C2.81366 3.70674 2.27046 4.25554 2.07802 4.86656L2 5.11437V11.7126V18.3109L2.07802 18.5587C2.27335 19.1788 2.82198 19.7269 3.44275 19.9221L3.6908 20H11H18.3092L18.5573 19.9221C19.178 19.7269 19.7267 19.1788 19.922 18.5587L20 18.3109V11.7126V5.11437L19.922 4.86656C19.7295 4.25554 19.1863 3.70674 18.5759 3.50665C18.3829 3.44338 18.2376 3.42828 17.7016 3.41582L17.0587 3.4009V2.70047V2H16.3542H15.6497V2.70381V3.40762H11H6.35029V2.70381V2H5.64579H4.94129V2.70047ZM4.94129 5.51906V6.22287H5.64579H6.35029V5.51906V4.81525H11H15.6497V5.51906V6.22287H16.3542H17.0587V5.51523V4.80758L17.5783 4.82148C18.1249 4.83608 18.1911 4.85276 18.374 5.02189C18.5856 5.21762 18.59 5.2412 18.6024 6.26686L18.6137 7.20821H11H3.38628L3.39762 6.26686C3.40735 5.46177 3.41767 5.30971 3.46885 5.21635C3.54842 5.07126 3.75685 4.89179 3.87637 4.86547C3.92931 4.85382 3.98845 4.839 4.00783 4.83253C4.0272 4.82609 4.24514 4.81954 4.49217 4.81803L4.94129 4.81525V5.51906ZM18.6004 13.3578C18.5917 17.7426 18.5865 18.1079 18.5312 18.2089C18.454 18.3496 18.2466 18.5311 18.1236 18.5655C17.9978 18.6006 4.00216 18.6006 3.87637 18.5655C3.7534 18.5311 3.54603 18.3496 3.46885 18.2089C3.41351 18.1079 3.4083 17.7426 3.39956 13.3578L3.39016 8.61584H11H18.6098L18.6004 13.3578ZM4.65949 10.7977V11.5015H5.36399H6.06849V10.7977V10.0938H5.36399H4.65949V10.7977ZM7.4775 10.7977V11.5015H8.182H8.8865V10.7977V10.0938H8.182H7.4775V10.7977ZM10.2955 10.7977V11.5015H11H11.7045V10.7977V10.0938H11H10.2955V10.7977ZM13.1135 10.7977V11.5015H13.818H14.5225V10.7977V10.0938H13.818H13.1135V10.7977ZM15.9315 10.7977V11.5015H16.636H17.3405V10.7977V10.0938H16.636H15.9315V10.7977ZM4.65949 13.6129V14.3167H5.36399H6.06849V13.6129V12.9091H5.36399H4.65949V13.6129ZM7.4775 13.6129V14.3167H8.182H8.8865V13.6129V12.9091H8.182H7.4775V13.6129ZM10.2955 13.6129V14.3167H11H11.7045V13.6129V12.9091H11H10.2955V13.6129ZM13.1135 13.6129V14.3167H13.818H14.5225V13.6129V12.9091H13.818H13.1135V13.6129ZM15.9315 13.6129V14.3167H16.636H17.3405V13.6129V12.9091H16.636H15.9315V13.6129ZM4.65949 16.4282V17.132H5.36399H6.06849V16.4282V15.7243H5.36399H4.65949V16.4282ZM7.4775 16.4282V17.132H8.182H8.8865V16.4282V15.7243H8.182H7.4775V16.4282ZM10.2955 16.4282V17.132H11H11.7045V16.4282V15.7243H11H10.2955V16.4282ZM13.1135 16.4282V17.132H13.818H14.5225V16.4282V15.7243H13.818H13.1135V16.4282Z" fill="white" fill-opacity="0.6"/>
</svg>
