<svg width="20" height="21" viewBox="0 0 20 21" fill="none" xmlns="http://www.w3.org/2000/svg">
<path fill-rule="evenodd" clip-rule="evenodd" d="M9.65598 0.0344531C9.36033 0.132958 9.09719 0.374478 8.94884 0.683505L8.86894 0.849936L8.86126 6.0555L8.85358 11.2611L7.44921 9.82828C6.52185 8.88215 6.00236 8.37374 5.91978 8.33142C5.57463 8.15461 5.23129 8.1417 4.90446 8.29332C4.44543 8.50625 4.18211 8.94653 4.21467 9.4467C4.245 9.91234 4.10848 9.75169 6.88927 12.5937C9.71649 15.4832 9.49448 15.2907 10.0015 15.2925C10.2583 15.2935 10.2972 15.2855 10.4815 15.1945C10.6687 15.102 10.8443 14.9289 13.1291 12.5851C15.8661 9.77739 15.7627 9.89886 15.7903 9.45816C15.8471 8.55392 14.9634 7.92594 14.159 8.2988C13.9706 8.38617 13.8716 8.4804 12.5538 9.82648L11.1495 11.2611L11.1418 6.0555L11.1341 0.849936L11.0519 0.678629C10.9305 0.425702 10.7367 0.22132 10.5101 0.107165C10.3415 0.0222642 10.2817 0.0085404 10.0486 0.00122706C9.87896 -0.00409994 9.73514 0.00808896 9.65598 0.0344531ZM0.751533 12.3698C0.556758 12.4447 0.302324 12.6623 0.182329 12.8568C0.141174 12.9235 0.0832801 13.0595 0.0537153 13.159C0.00302861 13.3294 -6.0381e-05 13.5297 2.78721e-05 16.6504C0.000145543 20.2516 -0.00767956 20.0744 0.165473 20.3999C0.269553 20.5954 0.489391 20.803 0.69911 20.9035L0.867321 20.9842L9.95739 20.9921L19.0475 21L19.2387 20.9319C19.4989 20.8392 19.8144 20.5283 19.9183 20.2619L19.9888 20.0813L19.9966 16.6968C20.0042 13.3364 20.0039 13.311 19.943 13.1238C19.7812 12.6263 19.3579 12.3073 18.8542 12.3033C18.5653 12.3009 18.3732 12.3617 18.1589 12.523C17.9584 12.674 17.8148 12.8856 17.7353 13.1469C17.6824 13.3209 17.6795 13.4637 17.6795 15.9759V18.6217H10.0023H2.325L2.31691 15.9055L2.30879 13.1893L2.21486 12.9864C2.09907 12.7364 1.89568 12.5228 1.66122 12.405C1.50889 12.3285 1.44735 12.3156 1.20562 12.3096C0.977137 12.304 0.894297 12.315 0.751533 12.3698Z" fill="white"/>
</svg>
