<svg width="918" height="70" viewBox="0 0 918 70" fill="none" xmlns="http://www.w3.org/2000/svg">
<path d="M22.5 67.9053C29.6667 68.4053 41.5202 67.8119 57 65.72C75.5 63.22 72 45.22 60 28.72C48 12.22 72.5 4.21999 105 2.21999C137.5 0.21999 172 -1.78002 193.5 17.72C215 37.22 189 45.72 211 54.22C228.6 61.02 801.5 59.72 917.5 59.72" stroke="url(#paint0_linear_2087_13)" stroke-width="2"/>
<path fill-rule="evenodd" clip-rule="evenodd" d="M21.9002 19.8049C20.6453 19.9869 19.7604 20.1617 18.6761 20.4419C17.5432 20.7347 15.8368 21.3181 15.1021 21.664C14.9096 21.7546 14.7378 21.8287 14.7203 21.8287C14.648 21.8287 12.8078 22.7722 12.515 22.9595C12.3406 23.0709 12.1841 23.1621 12.1672 23.1621C12.1503 23.1621 11.8444 23.3552 11.4873 23.591C11.1303 23.8269 10.7971 24.0457 10.7469 24.0772C10.3871 24.303 9.298 25.1433 8.80321 25.5769C8.66235 25.7003 8.42254 25.9084 8.27023 26.0394C7.95488 26.3107 6.65039 27.6219 6.32776 27.992C6.20974 28.1273 6.01152 28.3523 5.88728 28.492C5.76304 28.6317 5.53791 28.9085 5.38698 29.1071C5.23606 29.3058 5.09848 29.4808 5.08125 29.496C4.94867 29.6134 3.47275 31.7699 3.47275 31.8461C3.47275 31.8625 3.35679 32.0718 3.21504 32.3111C2.97563 32.7154 2.19422 34.2359 2.19422 34.2974C2.19422 34.3125 2.12018 34.4822 2.02974 34.6746C1.3922 36.03 0.639981 38.4831 0.355148 40.1359C0.00405313 42.1726 0.00177403 42.2021 5.08027e-05 44.6641C-0.00156125 47.031 0.0340151 47.5641 0.276046 48.8033C0.317792 49.0172 0.368155 49.3173 0.387945 49.4701C0.441198 49.8819 0.890239 51.6583 1.11821 52.3592C1.33378 53.0218 1.76864 54.1784 2.01117 54.734C2.26043 55.305 2.97074 56.7145 3.23044 57.1536C3.36369 57.3789 3.47275 57.5746 3.47275 57.5885C3.47275 57.6661 4.73271 59.4897 5.19598 60.0826C5.33356 60.2586 5.50867 60.4842 5.5851 60.5837C6.12453 61.2861 7.60412 62.806 8.61487 63.6959C11.0043 65.7996 14.1662 67.582 17.3175 68.6017C18.7238 69.0567 20.2731 69.4003 21.8724 69.6118C22.5583 69.7024 23.0349 69.7185 25.0687 69.7197C26.4647 69.7205 27.6072 69.697 27.8152 69.6633C28.0111 69.6315 28.3363 69.584 28.5378 69.5577C29.7629 69.3977 31.4858 69.0033 32.7121 68.6019C37.4537 67.05 41.3976 64.3182 44.6244 60.3509C46.4027 58.1643 47.985 55.2231 48.8789 52.4425C49.1683 51.5424 49.5878 49.8679 49.6633 49.3116C49.6959 49.0716 49.7338 48.8571 49.7476 48.8347C49.7615 48.8124 49.8239 48.4006 49.8864 47.9198C49.9852 47.1591 50 46.7401 50 44.6955C50 42.6483 49.9857 42.2425 49.8888 41.5463C49.501 38.7604 48.888 36.6131 47.8127 34.2743C46.8337 32.1447 45.6981 30.3543 44.1632 28.5204C43.5626 27.8027 42.2647 26.4698 41.6951 25.9856C41.5758 25.8842 41.3632 25.6991 41.2226 25.5742C40.9262 25.311 40.0185 24.5962 39.6908 24.368C39.0553 23.9254 37.9593 23.2015 37.8841 23.1747C37.837 23.1579 37.7359 23.1017 37.6594 23.0499C37.3442 22.8362 35.7334 22.0004 35.2136 21.7809C32.6898 20.7149 30.6334 20.1474 28.0449 19.8023C27.2087 19.6908 22.6737 19.6927 21.9002 19.8049ZM26.4119 23.0961C27.1318 23.3374 27.5474 23.5785 28.2013 24.1343C28.3748 24.2818 28.9877 25.0432 28.9877 25.1113C28.9877 25.1407 29.052 25.2618 29.1306 25.3805C29.2092 25.4992 29.3501 25.8425 29.4437 26.1433C29.6 26.6455 29.6141 26.7561 29.6158 27.4959C29.6176 28.2261 29.6031 28.3483 29.4616 28.8015C28.9816 30.3391 27.8089 31.5025 26.2917 31.9466C25.6457 32.1356 24.4429 32.137 23.7624 31.9493C22.2475 31.5317 21.0509 30.3541 20.5639 28.8015C20.4232 28.3529 20.4071 28.2214 20.4068 27.5236C20.4066 26.8333 20.4241 26.6864 20.5626 26.218C21.0095 24.7059 22.1641 23.5361 23.6512 23.0885C24.3142 22.889 24.2647 22.8949 25.1243 22.9109C25.8235 22.924 25.9543 22.9428 26.4119 23.0961ZM11.1161 31.6021C11.3913 31.6596 11.7938 31.7922 12.0106 31.8969C13.4976 32.6147 14.3043 33.6665 14.6972 35.4001C14.8009 35.8582 14.7701 36.5422 14.6189 37.138C14.222 38.702 13.2368 39.8324 11.7651 40.4123C11.1928 40.6378 10.7423 40.7183 10.0497 40.7188C8.46745 40.7202 6.96263 39.8579 6.11608 38.4648C5.34062 37.1887 5.26758 35.5133 5.92663 34.1175C6.05182 33.8523 6.17061 33.6228 6.19062 33.6075C6.22386 33.5821 6.30191 33.474 6.5301 33.1372C6.64411 32.9689 7.21889 32.4708 7.56531 32.2401C7.97328 31.9683 8.83956 31.6207 9.25736 31.5611C9.86338 31.4745 10.5807 31.4904 11.1161 31.6021ZM40.6897 31.5554C42.4537 31.8006 43.9667 33.2018 44.4177 35.0079C44.9608 37.1826 43.8603 39.4102 41.789 40.3292C41.1579 40.6092 40.6308 40.7201 39.9488 40.7163C38.9649 40.711 38.1779 40.4803 37.3769 39.9624C36.8593 39.6277 36.6139 39.4003 36.2388 38.9075C35.0922 37.4011 34.9705 35.4015 35.9266 33.7742C36.2251 33.2663 36.7103 32.7021 37.0158 32.5077C37.1405 32.4284 37.2939 32.3186 37.3568 32.2637C37.4842 32.1524 38.0682 31.8592 38.4099 31.7351C39.0223 31.5125 39.8894 31.4441 40.6897 31.5554ZM25.6048 38.5552C26.3015 38.6259 26.6896 38.7204 27.3478 38.9798C28.9164 39.5981 30.2597 40.9683 30.8235 42.525C31.1471 43.4187 31.1719 43.5739 31.1734 44.7196C31.175 45.8683 31.1556 45.9896 30.8225 46.9096C30.4422 47.96 29.6687 48.9846 28.7375 49.6713C27.7578 50.3939 26.9007 50.7299 25.7098 50.8582C24.4802 50.9906 23.3757 50.8076 22.2893 50.2912C21.4571 49.8958 20.6765 49.2566 20.1042 48.5021C19.5289 47.7437 19.2408 47.1534 18.9599 46.1577C18.8421 45.7404 18.7902 44.5416 18.861 43.8767C18.9888 42.6768 19.6228 41.3782 20.561 40.3948C20.8486 40.0934 21.4861 39.5868 21.789 39.419C21.8808 39.3683 22.0684 39.2637 22.2059 39.1867C22.6339 38.9473 23.5689 38.6593 24.1689 38.5821C24.907 38.4872 24.9302 38.4868 25.6048 38.5552ZM10.953 48.7791C12.0259 48.9713 13.0666 49.5982 13.7353 50.4551C15.1027 52.2077 15.082 54.5451 13.6838 56.2484C13.268 56.755 12.6126 57.2832 12.2001 57.4441C12.0931 57.4859 11.9194 57.5675 11.814 57.6256C11.5556 57.768 10.6209 57.9433 10.1275 57.9419C8.6703 57.9379 7.29921 57.2723 6.43437 56.149C5.65603 55.1381 5.32834 53.8319 5.5324 52.5537C5.81829 50.7633 7.31011 49.2005 9.11066 48.8053C9.52763 48.7138 10.5104 48.6998 10.953 48.7791ZM40.9218 48.8055C42.7567 49.2199 44.2182 50.77 44.4998 52.6003C44.5769 53.1023 44.5399 53.9515 44.4182 54.4705C44.3051 54.9523 43.9649 55.6601 43.6396 56.09C42.7474 57.2692 41.3941 57.9379 39.8917 57.9419C39.4905 57.943 38.4117 57.7574 38.3 57.668C38.2687 57.6429 38.1055 57.5655 37.9374 57.4959C37.7692 57.4263 37.5442 57.3046 37.4373 57.2256C37.3304 57.1465 37.1553 57.023 37.0482 56.951C36.8246 56.8007 36.5498 56.5247 36.2655 56.1651C35.6161 55.3435 35.2376 54.1876 35.2829 53.1648C35.3667 51.2771 36.5285 49.6624 38.2709 49.0122C38.5308 48.9152 38.8685 48.8126 39.0213 48.7842C39.4763 48.6994 40.5033 48.711 40.9218 48.8055ZM25.5903 57.3606C27.338 57.5097 28.8865 58.8204 29.4621 60.6377C29.6074 61.0962 29.6202 61.2047 29.616 61.9434C29.6118 62.6766 29.5962 62.7982 29.4425 63.296C29.3495 63.5968 29.2092 63.94 29.1306 64.0588C29.052 64.1774 28.9877 64.2967 28.9877 64.3238C28.9877 64.3508 28.841 64.5576 28.6617 64.7833C28.3386 65.1901 27.7618 65.7081 27.4546 65.8674C27.3669 65.9129 27.2155 65.9993 27.1183 66.0594C27.021 66.1194 26.7076 66.2463 26.422 66.3413C25.9323 66.5041 25.8532 66.5141 25.0409 66.5164C24.2665 66.5186 24.1343 66.5045 23.7346 66.377C22.9823 66.1371 22.5836 65.9261 22.0504 65.4859C21.7078 65.2031 21.1338 64.5492 21.0512 64.3478C21.029 64.2936 20.9446 64.1367 20.8636 63.9991C20.7827 63.8616 20.6475 63.5116 20.5632 63.2213C20.4295 62.7605 20.4097 62.5947 20.4072 61.9156C20.4039 61.0011 20.4959 60.6156 20.9111 59.8043C21.2922 59.0598 22.0243 58.2876 22.6784 57.9405C22.7702 57.8918 22.9328 57.8016 23.0398 57.7402C23.4146 57.5248 24.6838 57.2556 25.0687 57.3099C25.1299 57.3185 25.3646 57.3413 25.5903 57.3606Z" fill="url(#paint1_linear_2087_13)"/>
<defs>
<linearGradient id="paint0_linear_2087_13" x1="53.2168" y1="132.14" x2="947.435" y2="-295.933" gradientUnits="userSpaceOnUse">
<stop stop-color="#B1916B"/>
<stop offset="1" stop-color="#FDEAB1"/>
</linearGradient>
<linearGradient id="paint1_linear_2087_13" x1="1.48822" y1="92.5945" x2="54.5167" y2="89.1445" gradientUnits="userSpaceOnUse">
<stop stop-color="#B1916B"/>
<stop offset="1" stop-color="#FDEAB1"/>
</linearGradient>
</defs>
</svg>
