<svg width="1069" height="144" viewBox="0 0 1069 144" fill="none" xmlns="http://www.w3.org/2000/svg">
<path d="M36.5 142C43.6667 142.5 60.5 140.5 70.5 128.5C83 113.5 81.5 73.9998 69.5 57.4998C57.5 40.9998 74.5 8.99982 107 6.99982C139.5 4.99982 214.5 -6.50018 236 12.9998C257.5 32.4998 236.5 43.9998 258.5 52.4998C276.1 59.2998 805.833 55.3331 1068.5 52.4998" stroke="url(#paint0_linear_2084_10)" stroke-width="2"/>
<path fill-rule="evenodd" clip-rule="evenodd" d="M28.9083 77.1124C27.2518 77.3526 26.0837 77.5834 24.6525 77.9533C23.157 78.3397 20.9045 79.1099 19.9347 79.5664C19.6807 79.686 19.4539 79.7838 19.4308 79.7838C19.3353 79.7838 16.9063 81.0293 16.5198 81.2765C16.2896 81.4236 16.0831 81.544 16.0607 81.544C16.0384 81.544 15.6346 81.7988 15.1633 82.1101C14.692 82.4215 14.2522 82.7102 14.1859 82.7518C13.711 83.0499 12.2734 84.1591 11.6202 84.7314C11.4343 84.8943 11.1178 85.1691 10.9167 85.342C10.5004 85.7001 8.77851 87.4309 8.35264 87.9194C8.19686 88.0979 7.9352 88.395 7.7712 88.5794C7.60721 88.7638 7.31003 89.1292 7.11082 89.3914C6.9116 89.6536 6.72999 89.8846 6.70725 89.9047C6.53225 90.0597 4.58403 92.9062 4.58403 93.0069C4.58403 93.0285 4.43097 93.3047 4.24386 93.6207C3.92783 94.1544 2.89638 96.1613 2.89638 96.2426C2.89638 96.2624 2.79864 96.4865 2.67926 96.7404C1.8377 98.5296 0.844775 101.768 0.468795 103.949C0.00535013 106.638 0.00234172 106.677 6.70595e-05 109.927C-0.00206085 113.051 0.0449 113.755 0.36438 115.39C0.419486 115.673 0.485965 116.069 0.512087 116.27C0.582381 116.814 1.17512 119.159 1.47603 120.084C1.76058 120.959 2.33461 122.485 2.65475 123.219C2.98377 123.973 3.92137 125.833 4.26418 126.413C4.44007 126.71 4.58403 126.968 4.58403 126.987C4.58403 127.089 6.24718 129.496 6.8587 130.279C7.0403 130.511 7.27144 130.809 7.37233 130.94C8.08438 131.868 10.0374 133.874 11.3716 135.049C14.5257 137.825 18.6994 140.178 22.8591 141.524C24.7154 142.125 26.7606 142.578 28.8716 142.857C29.7769 142.977 30.4061 142.998 33.0907 143C34.9333 143.001 36.4415 142.97 36.716 142.925C36.9746 142.884 37.4039 142.821 37.6699 142.786C39.2871 142.575 41.5612 142.054 43.18 141.524C49.4389 139.476 54.6449 135.87 58.9041 130.633C61.2516 127.747 63.3403 123.864 64.5201 120.194C64.9021 119.006 65.4558 116.796 65.5556 116.061C65.5986 115.745 65.6487 115.461 65.6669 115.432C65.6851 115.402 65.7675 114.859 65.85 114.224C65.9805 113.22 66 112.667 66 109.968C66 107.266 65.9811 106.73 65.8532 105.811C65.3413 102.134 64.5321 99.2992 63.1128 96.212C61.8205 93.401 60.3215 91.0377 58.2955 88.6169C57.5027 87.6696 55.7895 85.9101 55.0376 85.2709C54.8801 85.1371 54.5994 84.8928 54.4139 84.7279C54.0226 84.3804 52.8244 83.4369 52.3918 83.1357C51.5529 82.5515 50.1063 81.596 50.007 81.5606C49.9448 81.5383 49.8114 81.4642 49.7105 81.3958C49.2943 81.1137 47.1681 80.0105 46.4819 79.7208C43.1505 78.3137 40.4361 77.5645 37.0193 77.109C35.9154 76.9619 29.9292 76.9644 28.9083 77.1124ZM34.8636 81.4569C35.814 81.7753 36.3626 82.0936 37.2257 82.8273C37.4547 83.0219 38.2638 84.027 38.2638 84.1168C38.2638 84.1556 38.3487 84.3156 38.4524 84.4722C38.5562 84.629 38.7421 85.0821 38.8657 85.4791C39.072 86.142 39.0906 86.2881 39.0929 87.2645C39.0952 88.2284 39.0761 88.3897 38.8894 88.988C38.2557 91.0176 36.7078 92.5533 34.705 93.1395C33.8523 93.389 32.2646 93.3907 31.3664 93.1431C29.3667 92.5918 27.7872 91.0374 27.1444 88.988C26.9587 88.3958 26.9373 88.2223 26.937 87.3012C26.9367 86.3899 26.9598 86.196 27.1426 85.5777C27.7326 83.5817 29.2566 82.0376 31.2196 81.4467C32.0947 81.1834 32.0294 81.1912 33.1641 81.2124C34.087 81.2296 34.2597 81.2544 34.8636 81.4569ZM14.6733 92.6848C15.0365 92.7606 15.5678 92.9357 15.854 93.0738C17.8169 94.0213 18.8816 95.4098 19.4002 97.6981C19.5372 98.3028 19.4966 99.2056 19.297 99.9921C18.7731 102.057 17.4726 103.549 15.5299 104.314C14.7745 104.612 14.1798 104.718 13.2655 104.719C11.177 104.721 9.19067 103.582 8.07322 101.743C7.04962 100.059 6.95321 97.8475 7.82315 96.005C7.9884 95.655 8.1452 95.3521 8.17162 95.3319C8.2155 95.2983 8.31852 95.1556 8.61973 94.711C8.77022 94.4889 9.52893 93.8314 9.98622 93.5269C10.5247 93.1681 11.6682 92.7093 12.2197 92.6306C13.0197 92.5163 13.9666 92.5373 14.6733 92.6848ZM53.7104 92.6231C56.0389 92.9468 58.0361 94.7964 58.6314 97.1804C59.3482 100.051 57.8957 102.991 55.1615 104.204C54.3284 104.574 53.6327 104.72 52.7325 104.716C51.4336 104.708 50.3948 104.404 49.3375 103.72C48.6543 103.279 48.3304 102.978 47.8353 102.328C46.3216 100.339 46.1611 97.7 47.4232 95.5519C47.8171 94.8814 48.4576 94.1367 48.8609 93.8801C49.0255 93.7754 49.228 93.6305 49.311 93.558C49.4792 93.4111 50.2501 93.0241 50.701 92.8603C51.5095 92.5664 52.6539 92.4762 53.7104 92.6231ZM33.7984 101.863C34.718 101.956 35.2303 102.081 36.0992 102.423C38.1696 103.239 39.9428 105.048 40.687 107.103C41.1142 108.283 41.1469 108.488 41.1489 110C41.151 111.516 41.1254 111.676 40.6857 112.891C40.1836 114.277 39.1627 115.63 37.9336 116.536C36.6403 117.49 35.5089 117.933 33.9369 118.103C32.3138 118.278 30.856 118.036 29.4219 117.354C28.3234 116.832 27.293 115.989 26.5376 114.993C25.7782 113.992 25.3979 113.212 25.027 111.898C24.8716 111.347 24.803 109.765 24.8965 108.887C25.0652 107.303 25.9021 105.589 27.1405 104.291C27.5201 103.893 28.3616 103.225 28.7615 103.003C28.8826 102.936 29.1302 102.798 29.3118 102.696C29.8768 102.38 31.111 102 31.903 101.898C32.8773 101.773 32.9079 101.773 33.7984 101.863ZM14.458 115.358C15.8742 115.612 17.248 116.44 18.1305 117.571C19.9356 119.884 19.9082 122.969 18.0627 125.218C17.5137 125.887 16.6486 126.584 16.1041 126.796C15.9629 126.851 15.7336 126.959 15.5945 127.036C15.2534 127.224 14.0196 127.455 13.3683 127.453C11.4448 127.448 9.63496 126.569 8.49337 125.087C7.46596 123.752 7.03341 122.028 7.30277 120.341C7.68015 117.977 9.64935 115.915 12.0261 115.393C12.5765 115.272 13.8738 115.254 14.458 115.358ZM54.0168 115.393C56.4388 115.94 58.3681 117.986 58.7397 120.402C58.8416 121.065 58.7927 122.186 58.632 122.871C58.4827 123.507 58.0336 124.441 57.6042 125.009C56.4266 126.565 54.6402 127.448 52.657 127.453C52.1274 127.455 50.7034 127.21 50.556 127.092C50.5147 127.059 50.2993 126.956 50.0773 126.865C49.8554 126.773 49.5583 126.612 49.4172 126.508C49.2761 126.403 49.045 126.24 48.9036 126.145C48.6085 125.947 48.2458 125.583 47.8705 125.108C47.0133 124.023 46.5136 122.498 46.5735 121.148C46.684 118.656 48.2176 116.524 50.5176 115.666C50.8606 115.538 51.3064 115.403 51.5082 115.365C52.1088 115.253 53.4643 115.268 54.0168 115.393ZM33.7792 126.686C36.0862 126.883 38.1302 128.613 38.89 131.012C39.0818 131.617 39.0986 131.76 39.0931 132.735C39.0876 133.703 39.067 133.864 38.864 134.521C38.7414 134.918 38.5562 135.371 38.4524 135.528C38.3487 135.684 38.2638 135.842 38.2638 135.877C38.2638 135.913 38.0701 136.186 37.8335 136.484C37.4069 137.021 36.6456 137.705 36.2401 137.915C36.1243 137.975 35.9245 138.089 35.7961 138.168C35.6677 138.248 35.2541 138.415 34.877 138.54C34.2307 138.755 34.1262 138.769 33.054 138.772C32.0318 138.774 31.8573 138.756 31.3297 138.588C30.3366 138.271 29.8103 137.992 29.1065 137.411C28.6542 137.038 27.8966 136.175 27.7876 135.909C27.7582 135.837 27.6469 135.63 27.54 135.449C27.4331 135.267 27.2547 134.805 27.1434 134.422C26.9669 133.814 26.9408 133.595 26.9375 132.699C26.9331 131.491 27.0546 130.983 27.6026 129.912C28.1057 128.929 29.0721 127.91 29.9355 127.451C30.0566 127.387 30.2712 127.268 30.4125 127.187C30.9073 126.903 32.5826 126.547 33.0907 126.619C33.1714 126.63 33.4812 126.661 33.7792 126.686Z" fill="url(#paint1_linear_2084_10)"/>
<defs>
<linearGradient id="paint0_linear_2084_10" x1="67.2169" y1="206.234" x2="961.435" y2="-221.838" gradientUnits="userSpaceOnUse">
<stop stop-color="#B1916B"/>
<stop offset="1" stop-color="#FDEAB1"/>
</linearGradient>
<linearGradient id="paint1_linear_2084_10" x1="1.96445" y1="173.195" x2="71.9621" y2="168.641" gradientUnits="userSpaceOnUse">
<stop stop-color="#B1916B"/>
<stop offset="1" stop-color="#FDEAB1"/>
</linearGradient>
</defs>
</svg>
