<svg width="155" height="29" fill="none" xmlns="http://www.w3.org/2000/svg"><path fill-rule="evenodd" clip-rule="evenodd" d="M154.977 2.408c-.176.538-2.846 3.83-3.886 4.79-.988.913-2.753 1.473-3.835 1.218-.474-.112-.57-.163-.626-.337-.082-.248.327-1.559.656-2.107.623-1.037 2.043-2.09 3.535-2.619 1.675-.594 3.541-1.118 4.045-1.137.134-.005.16.04.111.192Zm-8.015-.526c.016.064-.037.24-.117.391a69.93 69.93 0 0 0-.95 2.142c-.441 1.026-.991 2.173-1.22 2.55-.896 1.47-2.04 2.361-3.305 2.577-.844.144-1.05.06-1.203-.497-.105-.38-.091-.566.092-1.235.53-1.926 1.696-3.175 4.567-4.893 1.48-.886 2.1-1.186 2.136-1.035Zm-7.099 4.461-1.06 3c-.654 1.851-1.01 2.51-1.776 3.292-.712.728-1.893 1.386-2.593 1.446-.445.038-.56.015-.797-.161-.514-.382-.532-.947-.076-2.362.371-1.148.857-2.025 1.459-2.632.749-.755 5.001-3.981 5.251-3.985.048 0-.136.63-.408 1.402Zm12.754 4.566c-.041.127-1.078.798-2.462 1.595-2.536 1.46-4.561 1.931-6.1 1.418-.989-.33-1.299-.73-1.082-1.4.223-.687 1.55-1.632 2.708-1.928.586-.15 3.142-.165 5.1-.03 1.328.09 1.884.195 1.836.345Zm-7.452-1.571c-.182.283-1.503 1.34-2.474 1.98-2.894 1.905-7.288 3.973-11.374 5.353-9.244 3.123-16.971 4.231-27.081 3.885-6.701-.23-11.963-.885-25.637-3.195-29.749-5.026-41.876-5.482-57.101-2.147-4.108.9-10.482 2.845-16.394 5.003-2.358.86-4.23 1.506-4.502 1.553-.265.045-.517-.312-.583-.825-.042-.326-.025-.386.17-.577.392-.386 2.184-1.08 6.933-2.682 3.909-1.32 8.019-2.589 9.639-2.978l3.273-.79c8.733-2.111 17.833-2.7 28.785-1.862 8.846.677 15.315 1.585 29.607 4.157 16.393 2.95 21.548 3.558 30.185 3.562 7.082.003 11.451-.56 17.971-2.313 7.042-1.894 13.474-4.659 16.849-7.241 1.26-.965 2.041-1.363 1.734-.883Zm-11.707-1.106c-.28.857-2.209 4.423-3.113 5.756-.909 1.34-2.537 2.409-3.988 2.618-.402.057-.78.088-.841.068-.197-.066-.463-.561-.541-1.008-.063-.365-.029-.58.204-1.287.489-1.482 1.34-2.556 2.77-3.496 1.61-1.06 5.375-3.117 5.578-3.05.03.01-.001.19-.069.4Zm-7.868 1.948c-.04.125-.477.911-.97 1.747-2.257 3.824-3.435 5.192-5.155 5.988-.853.395-2.276.647-2.752.489-.265-.088-.321-.167-.432-.601-.161-.629-.04-1.294.384-2.11.766-1.479 1.937-2.544 3.823-3.479 1.267-.628 3.714-1.715 4.64-2.061l.536-.201-.074.228Zm17.632 5.853c1.087.497 3.178 1.539 3.441 1.713.21.14.07.183-1.763.544-2.318.457-2.784.528-3.974.603-2.237.142-3.693-.289-4.825-1.428-.711-.714-.79-1.209-.274-1.716.521-.513 2.085-.925 3.418-.902.647.012 2.841.666 3.977 1.186Zm-26.321-4.929c.012.049-.242.51-.564 1.028-.322.517-.892 1.441-1.266 2.053-1.375 2.252-2.296 3.347-3.469 4.127-1.077.715-2.715 1.138-3.61.932-.4-.092-.456-.133-.558-.412-.254-.694.04-1.71.87-3.003.761-1.186 1.057-1.399 3.987-2.868 2.431-1.22 4.306-2.038 4.51-1.97a.174.174 0 0 1 .1.114Zm16.135 8.28c1.66.775 5.199 3.161 5.108 3.442-.067.206-3.861.29-5.96.131-1.951-.146-3.592-.812-4.665-1.892-.463-.465-.88-1.28-.793-1.55.035-.107.237-.338.449-.512 1.111-.915 3.412-.765 5.861.38Zm-23.686-7.916c.025.107-2.417 2.9-3.673 4.198-1.747 1.808-3.733 2.859-5.672 3-.494.037-.788-.005-1.376-.195-.72-.232-.753-.254-.889-.58-.133-.317-.124-.384.147-1.092.638-1.672 2.589-3.288 4.809-3.982 1.478-.463 6.326-1.54 6.568-1.46.035.011.073.062.086.11Zm-9.376-1.05c-.857 1.076-3.308 3.864-3.998 4.548-1.826 1.808-4.391 2.83-6.067 2.417-1.06-.261-1.319-.723-.981-1.755.609-1.86 2.282-3.251 5.087-4.227.998-.347 6.095-1.606 6.269-1.549.077.026-.018.2-.31.567Zm-9.079-.792c-1.511 1.477-3.713 3.46-4.563 4.107-1.765 1.347-3.995 2.127-5.742 2.01-.642-.043-1.813-.41-2.16-.676-1.027-.79.981-3.52 3.506-4.768 1.096-.541 3.24-1.025 6.176-1.394 2.016-.254 3.81-.45 3.882-.426.03.01-.464.526-1.099 1.147ZM81.93 6.3c-.27.354-3.152 3.288-3.904 3.973-2.372 2.162-4.318 3.297-6.153 3.588-1.831.29-3.654-.092-3.873-.812-.095-.31.276-1.44.68-2.075.664-1.043 1.858-2.094 3.136-2.76.823-.43 2.31-.853 4.843-1.376 2.148-.443 5.048-.895 5.272-.82.149.05.148.086-.001.282ZM72.513 3.47c-.203.36-3.794 4.379-4.703 5.261-1.96 1.905-3.67 2.911-5.69 3.348-1.028.222-1.653.242-2.512.08-.887-.167-1.402-.447-1.571-.853-.107-.257-.094-.407.085-.96.24-.739.967-1.95 1.576-2.625 1.175-1.304 3.097-2.313 5.87-3.082 1.617-.449 6.794-1.511 7.01-1.439.04.013.01.135-.065.27ZM62.815.766c-.02.063-1.224 1.465-2.267 2.64-1.546 1.742-3.114 3.403-4.077 4.319-2.063 1.96-4.575 3.068-7.11 3.133-.44.012-.87-.07-1.78-.337l-1.2-.352.223-.756c.562-1.912.925-2.592 1.952-3.653 1.258-1.3 3.178-2.401 5.359-3.076.545-.168 2.738-.672 4.873-1.118 4.29-.898 4.043-.849 4.027-.8Zm60.562 20.519c.801.349 1.872.983 3.599 2.132 1.986 1.321 2.36 1.614 2.253 1.761-.106.145-3.708.356-5.01.292-1.656-.08-2.676-.269-3.805-.705-1.154-.445-1.733-.86-2.329-1.667-.48-.65-.619-1.13-.42-1.448.338-.538 2.077-1.067 3.251-.989.588.04 1.858.361 2.461.624ZM49.92.175c-.081.252-2.63 3.643-3.76 5.004-2.944 3.544-4.985 5.05-7.67 5.653a5.69 5.69 0 0 1-2.433.051c-.9-.167-1.424-.425-1.509-.743-.103-.383.187-1.685.544-2.443.786-1.672 2.617-3.447 4.532-4.392 1.606-.794 9.848-3.44 10.272-3.3.04.014.05.09.024.17Zm63.021 22.032c1.227.61 2.66 1.746 5.092 4.04.963.907 1.232 1.207 1.092 1.218-.102.007-.975-.07-1.939-.172-4.439-.47-6.305-1.03-7.87-2.363-1.374-1.171-1.905-2.692-1.071-3.07.496-.224 1.34-.382 1.972-.368.738.016 1.963.337 2.724.715Zm-10.117-.523c.496.267 1.854 1.165 2.316 1.53.275.216 1.241 1.26 2.147 2.317 2.406 2.81 2.854 3.38 2.714 3.45-.175.088-1.125-.123-3.491-.775-4.063-1.118-5.742-1.98-6.877-3.527-.714-.974-1.21-2.261-1.055-2.74.18-.554 1.014-.783 2.461-.677.887.065 1.307.164 1.785.422ZM37.394.28c-.12.369-3.267 5.087-4.55 6.82-1.37 1.855-2.485 2.894-4.053 3.777-1.196.675-3.024 1.16-4.424 1.174-1.047.01-1.483-.307-1.629-1.186-.192-1.16 1.043-3.725 2.5-5.19 1.049-1.054 3.359-2.318 6.41-3.507C33.686 1.375 37.294.073 37.379.1c.038.012.045.092.017.179Zm55.951 20.523c1.37.653 2.753 1.894 4.978 4.465 1.769 2.045 1.912 2.406.897 2.277-.757-.097-3.314-.795-5.083-1.388-2.867-.962-4.02-1.814-5.005-3.699-.748-1.43-.555-2.01.752-2.249 1-.183 2.296.04 3.461.595ZM83.556 19.5c.323.183.983.64 1.468 1.018.96.748 1.516 1.42 3.782 4.574 1.466 2.039 2.06 2.947 1.977 3.018-.217.183-6.054-1.866-7.706-2.704-2.35-1.193-4.18-3.446-4.444-5.474-.053-.41-.06-.812-.016-.893.133-.24.938-.46 1.675-.458.872.003 2.41.436 3.264.92Zm-10.4-2.17c1.505.83 2.907 2.032 3.83 3.284 1.44 1.951 4.196 6.36 4.121 6.59-.05.156-4.08-1.467-6.87-2.766-1.187-.553-2.17-1.226-2.992-2.047-2.054-2.053-3.06-4.998-1.89-5.533.36-.164 1.192-.21 2.058-.114.742.083.97.16 1.744.586Zm-9.78-1.174c1.276.73 2.704 2.145 3.901 3.865 1.498 2.152 3.842 6.191 3.752 6.467-.106.33-7.02-2.74-8.579-3.81-.86-.59-2.123-1.792-2.68-2.552a10.13 10.13 0 0 1-.804-1.385c-.549-1.167-.785-2.835-.465-3.281.138-.194 1.117-.329 1.962-.27.7.048 2.146.528 2.913.966Zm-9.863-.617c.801.448 2.173 1.49 2.83 2.147 1.055 1.056 6.16 7.884 6.08 8.132-.055.171-.919-.088-4.74-1.42-4.022-1.4-5.334-1.927-6.207-2.49-2.023-1.303-3.852-3.82-4.122-5.672-.141-.969-.024-1.41.41-1.542.528-.16 1.545-.277 2.144-.246.792.042 2.837.66 3.605 1.09Zm-11.741-.48c1.537.843 3.45 2.586 5.357 4.882 1.517 1.826 3.517 4.387 3.637 4.656.099.222.092.227-.272.205-1.065-.065-8.139-2.188-9.608-2.883-2.44-1.155-3.869-2.494-4.943-4.63-.849-1.686-.898-2.565-.167-2.954.45-.24 1.385-.344 2.403-.27.93.068 2.893.611 3.593.995Zm-11.096 1.175c1.924.968 3.462 2.408 7.232 6.77 1.238 1.433 1.672 2.024 1.615 2.2-.079.243-.845.123-4.386-.69-2.32-.53-5.577-1.617-6.71-2.235-1.157-.632-1.776-1.087-2.556-1.882-1.425-1.45-2.323-3.404-2.01-4.37.401-1.237 4.173-1.122 6.815.207Z" fill="#1C4A20"/></svg>