<svg width="323" height="41" viewBox="0 0 323 41" fill="none" xmlns="http://www.w3.org/2000/svg">
<path d="M1 23.0433C9.48678 17.3016 33.2498 9.26325 60.4075 23.0433C87.5652 36.8234 110.663 28.785 118.816 23.0433C128.967 14.0205 154.76 1.38865 176.726 23.0433C198.692 44.698 239.795 32.0661 257.6 23.0433C269.082 15.6611 298.037 3.55434 322 14.1847" stroke="#1C4A20"/>
<path fill-rule="evenodd" clip-rule="evenodd" d="M57.3194 11.5362C55.733 10.8818 53.4881 10.4523 51.6495 10.4514C47.887 10.4496 44.8149 11.8615 42.4646 14.6725C41.9234 15.3199 41.2795 16.2088 41.1012 16.5548L41.0012 16.749L41.8652 17.1203C43.3566 17.7611 45.0193 18.0981 46.8204 18.1247C50.2201 18.1747 53.4797 16.7907 56.0891 14.1893C56.7545 13.5259 57.8152 12.2948 57.9485 12.031C58.0468 11.8365 58.0461 11.836 57.3194 11.5362Z" fill="#1C4A20"/>
<path fill-rule="evenodd" clip-rule="evenodd" d="M76.785 28.9333C78.5011 28.9376 80.7389 29.4023 82.4372 30.107C85.9123 31.5489 88.2076 34.0315 89.2994 37.5292C89.5508 38.3347 89.8043 39.4026 89.8362 39.7906L89.8541 40.0083L88.9138 40.0196C87.2906 40.0391 85.6258 39.7124 83.9524 39.0458C80.7937 37.7876 78.3146 35.2588 76.9031 31.8554C76.5432 30.9874 76.0361 29.4435 76.0141 29.1487C75.998 28.9315 75.9989 28.9312 76.785 28.9333Z" fill="#1C4A20"/>
<path fill-rule="evenodd" clip-rule="evenodd" d="M114.835 23.8318C114.454 21.816 114.497 19.0843 114.943 16.9321C115.855 12.5282 118.255 9.27572 122.116 7.20821C123.005 6.73204 124.202 6.19447 124.65 6.06994L124.902 6.00002L125.126 7.10147C125.514 9.00277 125.504 11.0307 125.097 13.1451C124.33 17.1362 121.918 20.6149 118.239 23.0367C117.301 23.6542 115.602 24.5964 115.261 24.6884C115.009 24.7561 115.009 24.7551 114.835 23.8318Z" fill="#1C4A20"/>
<path fill-rule="evenodd" clip-rule="evenodd" d="M170.882 18.3028C172.462 19.0167 174.333 20.3707 175.608 21.7229C178.215 24.4897 179.304 27.728 178.864 31.4043C178.763 32.2509 178.555 33.3404 178.424 33.7112L178.35 33.9193L177.478 33.5408C175.974 32.8874 174.574 31.8976 173.307 30.5908C170.915 28.1243 169.676 24.7674 169.782 21.0457C169.809 20.0966 169.98 18.4634 170.082 18.1826C170.157 17.9756 170.158 17.9758 170.882 18.3028Z" fill="#1C4A20"/>
<path fill-rule="evenodd" clip-rule="evenodd" d="M214.224 33.9945C214.767 32.3476 215.916 30.3443 217.126 28.9346C219.603 26.0498 222.708 24.6251 226.41 24.6751C227.263 24.6866 228.368 24.7785 228.751 24.8697L228.965 24.9209L228.681 25.8276C228.19 27.3927 227.353 28.889 226.187 30.2868C223.987 32.9254 220.779 34.5121 217.067 34.7988C216.121 34.8719 214.479 34.874 214.189 34.8025C213.975 34.7497 213.975 34.7488 214.224 33.9945Z" fill="#1C4A20"/>
<path fill-rule="evenodd" clip-rule="evenodd" d="M259.623 22.0784C261.02 21.0508 263.118 20.0837 264.921 19.6358C268.611 18.7192 271.967 19.357 274.956 21.5427C275.644 22.0461 276.492 22.7613 276.751 23.0574L276.896 23.2235L276.139 23.7977C274.832 24.7888 273.283 25.5237 271.523 25.9876C268.201 26.8633 264.667 26.2984 261.475 24.3814C260.661 23.8925 259.322 22.9429 259.127 22.7166C258.983 22.5498 258.984 22.549 259.623 22.0784Z" fill="#1C4A20"/>
<path fill-rule="evenodd" clip-rule="evenodd" d="M302.23 9.69538C302.775 8.37258 303.84 6.79256 304.92 5.70467C307.13 3.4785 309.771 2.49138 312.814 2.75349C313.515 2.81385 314.419 2.95545 314.729 3.05338L314.902 3.10831L314.614 3.83748C314.117 5.09611 313.339 6.27751 312.296 7.35827C310.328 9.39825 307.594 10.5126 304.522 10.527C303.738 10.5306 302.387 10.4344 302.152 10.3582C301.98 10.302 301.98 10.3013 302.23 9.69538Z" fill="#1C4A20"/>
</svg>
