<svg width="22" height="22" viewBox="0 0 22 22" fill="none" xmlns="http://www.w3.org/2000/svg">
<path fill-rule="evenodd" clip-rule="evenodd" d="M9.88444 0.0570321C6.98779 0.467242 4.59731 2.30532 3.51 4.95836C3.12962 5.88645 2.97049 6.83349 3.00447 7.96703C3.05356 9.60696 3.53371 11.1454 4.65441 13.2537C5.52095 14.8839 6.29275 16.0426 8.70539 19.3355C9.32024 20.1747 9.97962 21.0806 10.1707 21.3487C10.5553 21.8883 10.6969 22 10.9963 22C11.2895 22 11.4388 21.8877 11.7774 21.4126C11.943 21.1803 12.4399 20.497 12.8816 19.8942C13.3234 19.2914 13.973 18.4017 14.3253 17.9171C17.6551 13.3367 19 10.4059 19 7.73063C19 6.24315 18.6031 4.89333 17.7957 3.63537C17.0409 2.45919 15.8644 1.42387 14.5728 0.799184C13.8098 0.43015 12.8067 0.136289 11.9759 0.0384643C11.4789 -0.0200757 10.3587 -0.0101471 9.88444 0.0570321ZM11.6001 1.32901C14.3311 1.58488 16.6211 3.40353 17.3797 5.91899C17.799 7.30942 17.7316 8.64853 17.1577 10.331C16.6071 11.9449 15.7452 13.5207 14.1488 15.8325C13.2711 17.1035 11.0515 20.1306 10.9973 20.1306C10.9342 20.1306 8.56707 16.8961 7.66104 15.5718C6.21973 13.4652 5.3608 11.8724 4.83493 10.331C4.34968 8.90861 4.24031 7.90299 4.43751 6.67708C4.87238 3.97388 7.24539 1.7268 10.0401 1.37186C10.7943 1.2761 10.9806 1.27099 11.6001 1.32901ZM10.1742 3.93365C9.69045 4.03384 9.19905 4.23598 8.77917 4.50758C6.39037 6.05266 6.39642 9.43143 8.79069 10.9584C10.6406 12.1382 13.0958 11.6574 14.3313 9.87332C15.2277 8.57903 15.2277 6.88223 14.3313 5.58795C13.7363 4.72872 12.8299 4.13816 11.7876 3.9306C11.3612 3.84571 10.592 3.84718 10.1742 3.93365ZM11.7079 5.26503C12.5849 5.50306 13.2921 6.19114 13.5572 7.06443C13.6619 7.40956 13.6619 8.0517 13.5572 8.39684C13.2897 9.27799 12.5974 9.94699 11.6856 10.2055C11.3285 10.3068 10.6641 10.3068 10.3069 10.2055C9.39518 9.94699 8.70294 9.27799 8.43543 8.39684C8.38491 8.23041 8.35715 7.99411 8.35715 7.73063C8.35715 7.46716 8.38491 7.23085 8.43543 7.06443C8.73563 6.07557 9.58131 5.34889 10.6139 5.19239C10.9063 5.14808 11.3972 5.1807 11.7079 5.26503Z" fill="white" fill-opacity="0.6"/>
</svg>
