<svg width="307" height="17" viewBox="0 0 307 17" fill="none" xmlns="http://www.w3.org/2000/svg">
<path d="M0.56 0.739999H8.46L12.22 8.76C12.26 8.85333 12.3067 9.16667 12.36 9.7C12.4267 10.22 12.4933 10.48 12.56 10.48C12.6133 10.48 12.66 10.3267 12.7 10.02C12.7533 9.7 12.82 9.28 12.9 8.76L16.66 0.739999H24.16V15.02H19.76V5.04C19.76 4.86667 19.7933 4.65333 19.86 4.4C19.9267 4.14667 19.96 3.99333 19.96 3.94C19.96 3.83333 19.92 3.78 19.84 3.78C19.7867 3.78 19.72 3.86 19.64 4.02C19.56 4.16667 19.4933 4.30667 19.44 4.44L14.36 15.02H10.76L5.28 4.4C5.2 4.22667 5.12667 4.07333 5.06 3.94C4.99333 3.80667 4.93333 3.74 4.88 3.74C4.8 3.74 4.76 3.78667 4.76 3.88C4.76 3.89333 4.80667 4.11333 4.9 4.54C4.94 4.72667 4.96 4.88 4.96 5V15.02H0.56V0.739999ZM33.8442 0.719999H41.4042L48.4842 15H43.3442L41.9842 12.62H33.2642L31.9042 15H26.7642L33.8442 0.719999ZM37.9642 3.94H37.2842L34.9042 8.92H40.3242L37.9642 3.94ZM51.4125 0.719999H55.8125V5.72H58.1125L63.0925 0.719999H69.1525L62.0125 7.52L70.0725 14.98H63.6925L58.1125 9.42H55.8125V15H51.4125V0.719999ZM81.5628 0.5C85.6428 0.5 88.1561 0.84 89.1028 1.52C89.9295 2.10667 90.3428 3.66667 90.3428 6.2H85.9228C85.9228 5.37333 85.7028 4.84667 85.2628 4.62C84.7161 4.34 83.4828 4.2 81.5628 4.2C79.4161 4.2 78.1561 4.36667 77.7828 4.7C77.4095 5.03333 77.2228 6.08667 77.2228 7.86C77.2228 9.62 77.4095 10.6667 77.7828 11C78.1561 11.3333 79.4161 11.5 81.5628 11.5C83.5095 11.5 84.7228 11.3867 85.2028 11.16C85.6961 10.92 85.9428 10.3667 85.9428 9.5H90.3428C90.3428 12.0467 89.9428 13.6067 89.1428 14.18C88.1961 14.86 85.6695 15.2 81.5628 15.2C77.4561 15.2 74.9695 14.8267 74.1028 14.08C73.2495 13.3333 72.8228 11.2533 72.8228 7.84C72.8228 4.44 73.2361 2.38 74.0628 1.66C74.9561 0.886666 77.4561 0.5 81.5628 0.5ZM93.7306 0.719999H98.1306V10.56C98.024 10.9333 97.9173 11.3 97.8106 11.66C97.7973 11.7933 97.7906 11.9267 97.7906 12.06C97.884 12.06 97.9706 11.9733 98.0506 11.8C98.144 11.6267 98.2306 11.4533 98.3106 11.28L105.831 0.719999H113.031V15H108.631V5.14C108.631 5.12667 108.744 4.76 108.971 4.04C108.971 3.90667 108.977 3.77333 108.991 3.64C108.897 3.64 108.804 3.73333 108.711 3.92C108.631 4.09333 108.551 4.26 108.471 4.42L100.931 15H93.7306V0.719999ZM117.435 0.739999H125.335L129.095 8.76C129.135 8.85333 129.182 9.16667 129.235 9.7C129.302 10.22 129.368 10.48 129.435 10.48C129.488 10.48 129.535 10.3267 129.575 10.02C129.628 9.7 129.695 9.28 129.775 8.76L133.535 0.739999H141.035V15.02H136.635V5.04C136.635 4.86667 136.668 4.65333 136.735 4.4C136.802 4.14667 136.835 3.99333 136.835 3.94C136.835 3.83333 136.795 3.78 136.715 3.78C136.662 3.78 136.595 3.86 136.515 4.02C136.435 4.16667 136.368 4.30667 136.315 4.44L131.235 15.02H127.635L122.155 4.4C122.075 4.22667 122.002 4.07333 121.935 3.94C121.868 3.80667 121.808 3.74 121.755 3.74C121.675 3.74 121.635 3.78667 121.635 3.88C121.635 3.89333 121.682 4.11333 121.775 4.54C121.815 4.72667 121.835 4.88 121.835 5V15.02H117.435V0.739999ZM155.971 11.3C156.371 11.3 156.671 10.56 156.871 9.08C157.084 7.6 157.191 4.80667 157.191 0.699999H173.691V11.3H174.791V16.5H170.391V15.9C170.391 15.58 170.317 15.3467 170.171 15.2C170.037 15.0667 169.797 15 169.451 15H160.551C159.911 15 159.591 15.3 159.591 15.9V16.5H155.191V11.3H155.971ZM169.291 11.3V4.4H161.591C161.591 6.32 161.504 7.89333 161.331 9.12C161.171 10.3467 160.964 11.0733 160.711 11.3H169.291ZM196.749 7.86C196.749 11.34 196.329 13.42 195.489 14.1C194.582 14.8333 191.849 15.2 187.289 15.2C183.956 15.2 181.769 15.08 180.729 14.84C179.422 14.5333 178.596 13.8667 178.249 12.84C177.982 12.0533 177.849 10.3933 177.849 7.86C177.849 4.38 178.262 2.3 179.089 1.62C179.996 0.873333 182.729 0.5 187.289 0.5C191.836 0.5 194.562 0.866666 195.469 1.6C196.322 2.29333 196.749 4.38 196.749 7.86ZM182.249 7.86C182.249 9.68667 182.456 10.7533 182.869 11.06C183.296 11.3533 184.769 11.5 187.289 11.5C189.822 11.5 191.296 11.3533 191.709 11.06C192.136 10.7533 192.349 9.68667 192.349 7.86C192.349 6.02 192.136 4.95333 191.709 4.66C191.296 4.35333 189.829 4.2 187.309 4.2C184.776 4.2 183.296 4.35333 182.869 4.66C182.456 4.95333 182.249 6.02 182.249 7.86ZM200.157 0.699999H210.917C213.264 0.699999 214.81 0.986666 215.557 1.56C216.49 2.26667 216.957 3.78 216.957 6.1C216.957 8.40667 216.497 9.91333 215.577 10.62C214.817 11.2067 213.264 11.5 210.917 11.5H204.557V15H200.157V0.699999ZM204.557 7.8H210.917C211.437 7.8 211.83 7.68667 212.097 7.46C212.417 7.19333 212.577 6.74 212.577 6.1C212.577 5.47333 212.417 5.02 212.097 4.74C211.83 4.51333 211.437 4.4 210.917 4.4H204.557V7.8ZM239.034 7.86C239.034 11.34 238.614 13.42 237.774 14.1C236.867 14.8333 234.134 15.2 229.574 15.2C226.241 15.2 224.054 15.08 223.014 14.84C221.707 14.5333 220.881 13.8667 220.534 12.84C220.267 12.0533 220.134 10.3933 220.134 7.86C220.134 4.38 220.547 2.3 221.374 1.62C222.281 0.873333 225.014 0.5 229.574 0.5C234.121 0.5 236.847 0.866666 237.754 1.6C238.607 2.29333 239.034 4.38 239.034 7.86ZM224.534 7.86C224.534 9.68667 224.741 10.7533 225.154 11.06C225.581 11.3533 227.054 11.5 229.574 11.5C232.107 11.5 233.581 11.3533 233.994 11.06C234.421 10.7533 234.634 9.68667 234.634 7.86C234.634 6.02 234.421 4.95333 233.994 4.66C233.581 4.35333 232.114 4.2 229.594 4.2C227.061 4.2 225.581 4.35333 225.154 4.66C224.741 4.95333 224.534 6.02 224.534 7.86ZM242.302 0.719999H246.702V5.72H256.202V0.719999H260.602V15H256.202V9.42H246.702V15H242.302V0.719999ZM264.766 0.719999H269.166V10.56C269.059 10.9333 268.952 11.3 268.846 11.66C268.832 11.7933 268.826 11.9267 268.826 12.06C268.919 12.06 269.006 11.9733 269.086 11.8C269.179 11.6267 269.266 11.4533 269.346 11.28L276.866 0.719999H284.066V15H279.666V5.14C279.666 5.12667 279.779 4.76 280.006 4.04C280.006 3.90667 280.012 3.77333 280.026 3.64C279.932 3.64 279.839 3.73333 279.746 3.92C279.666 4.09333 279.586 4.26 279.506 4.42L271.966 15H264.766V0.719999ZM288.63 0.719999H293.03V5.72H302.53V0.719999H306.93V15H302.53V9.42H293.03V15H288.63V0.719999Z" fill="white"/>
</svg>
