<svg width="153" height="41" viewBox="0 0 153 41" fill="none" xmlns="http://www.w3.org/2000/svg">
<path d="M0.56 0.739999H8.46L12.22 8.76C12.26 8.85333 12.3067 9.16667 12.36 9.7C12.4267 10.22 12.4933 10.48 12.56 10.48C12.6133 10.48 12.66 10.3267 12.7 10.02C12.7533 9.7 12.82 9.28 12.9 8.76L16.66 0.739999H24.16V15.02H19.76V5.04C19.76 4.86667 19.7933 4.65333 19.86 4.4C19.9267 4.14667 19.96 3.99333 19.96 3.94C19.96 3.83333 19.92 3.78 19.84 3.78C19.7867 3.78 19.72 3.86 19.64 4.02C19.56 4.16667 19.4933 4.30667 19.44 4.44L14.36 15.02H10.76L5.28 4.4C5.2 4.22667 5.12667 4.07333 5.06 3.94C4.99333 3.80667 4.93333 3.74 4.88 3.74C4.8 3.74 4.76 3.78667 4.76 3.88C4.76 3.89333 4.80667 4.11333 4.9 4.54C4.94 4.72667 4.96 4.88 4.96 5V15.02H0.56V0.739999ZM33.8442 0.719999H41.4042L48.4842 15H43.3442L41.9842 12.62H33.2642L31.9042 15H26.7642L33.8442 0.719999ZM37.9642 3.94H37.2842L34.9042 8.92H40.3242L37.9642 3.94ZM51.4125 0.719999H55.8125V5.72H58.1125L63.0925 0.719999H69.1525L62.0125 7.52L70.0725 14.98H63.6925L58.1125 9.42H55.8125V15H51.4125V0.719999ZM81.5628 0.5C85.6428 0.5 88.1561 0.84 89.1028 1.52C89.9295 2.10667 90.3428 3.66667 90.3428 6.2H85.9228C85.9228 5.37333 85.7028 4.84667 85.2628 4.62C84.7161 4.34 83.4828 4.2 81.5628 4.2C79.4161 4.2 78.1561 4.36667 77.7828 4.7C77.4095 5.03333 77.2228 6.08667 77.2228 7.86C77.2228 9.62 77.4095 10.6667 77.7828 11C78.1561 11.3333 79.4161 11.5 81.5628 11.5C83.5095 11.5 84.7228 11.3867 85.2028 11.16C85.6961 10.92 85.9428 10.3667 85.9428 9.5H90.3428C90.3428 12.0467 89.9428 13.6067 89.1428 14.18C88.1961 14.86 85.6695 15.2 81.5628 15.2C77.4561 15.2 74.9695 14.8267 74.1028 14.08C73.2495 13.3333 72.8228 11.2533 72.8228 7.84C72.8228 4.44 73.2361 2.38 74.0628 1.66C74.9561 0.886666 77.4561 0.5 81.5628 0.5ZM93.7306 0.719999H98.1306V10.56C98.024 10.9333 97.9173 11.3 97.8106 11.66C97.7973 11.7933 97.7906 11.9267 97.7906 12.06C97.884 12.06 97.9706 11.9733 98.0506 11.8C98.144 11.6267 98.2306 11.4533 98.3106 11.28L105.831 0.719999H113.031V15H108.631V5.14C108.631 5.12667 108.744 4.76 108.971 4.04C108.971 3.90667 108.977 3.77333 108.991 3.64C108.897 3.64 108.804 3.73333 108.711 3.92C108.631 4.09333 108.551 4.26 108.471 4.42L100.931 15H93.7306V0.719999ZM117.435 0.739999H125.335L129.095 8.76C129.135 8.85333 129.182 9.16667 129.235 9.7C129.302 10.22 129.368 10.48 129.435 10.48C129.488 10.48 129.535 10.3267 129.575 10.02C129.628 9.7 129.695 9.28 129.775 8.76L133.535 0.739999H141.035V15.02H136.635V5.04C136.635 4.86667 136.668 4.65333 136.735 4.4C136.802 4.14667 136.835 3.99333 136.835 3.94C136.835 3.83333 136.795 3.78 136.715 3.78C136.662 3.78 136.595 3.86 136.515 4.02C136.435 4.16667 136.368 4.30667 136.315 4.44L131.235 15.02H127.635L122.155 4.4C122.075 4.22667 122.002 4.07333 121.935 3.94C121.868 3.80667 121.808 3.74 121.755 3.74C121.675 3.74 121.635 3.78667 121.635 3.88C121.635 3.89333 121.682 4.11333 121.775 4.54C121.815 4.72667 121.835 4.88 121.835 5V15.02H117.435V0.739999ZM1.42 35.3C1.82 35.3 2.12 34.56 2.32 33.08C2.53333 31.6 2.64 28.8067 2.64 24.7H19.14V35.3H20.24V40.5H15.84V39.9C15.84 39.58 15.7667 39.3467 15.62 39.2C15.4867 39.0667 15.2467 39 14.9 39H6C5.36 39 5.04 39.3 5.04 39.9V40.5H0.64V35.3H1.42ZM14.74 35.3V28.4H7.04C7.04 30.32 6.95333 31.8933 6.78 33.12C6.62 34.3467 6.41333 35.0733 6.16 35.3H14.74ZM42.1981 31.86C42.1981 35.34 41.7781 37.42 40.9381 38.1C40.0315 38.8333 37.2981 39.2 32.7381 39.2C29.4048 39.2 27.2181 39.08 26.1781 38.84C24.8715 38.5333 24.0448 37.8667 23.6981 36.84C23.4315 36.0533 23.2981 34.3933 23.2981 31.86C23.2981 28.38 23.7115 26.3 24.5381 25.62C25.4448 24.8733 28.1781 24.5 32.7381 24.5C37.2848 24.5 40.0115 24.8667 40.9181 25.6C41.7715 26.2933 42.1981 28.38 42.1981 31.86ZM27.6981 31.86C27.6981 33.6867 27.9048 34.7533 28.3181 35.06C28.7448 35.3533 30.2181 35.5 32.7381 35.5C35.2715 35.5 36.7448 35.3533 37.1581 35.06C37.5848 34.7533 37.7981 33.6867 37.7981 31.86C37.7981 30.02 37.5848 28.9533 37.1581 28.66C36.7448 28.3533 35.2781 28.2 32.7581 28.2C30.2248 28.2 28.7448 28.3533 28.3181 28.66C27.9048 28.9533 27.6981 30.02 27.6981 31.86ZM45.6061 24.7H56.3661C58.7128 24.7 60.2594 24.9867 61.0061 25.56C61.9394 26.2667 62.4061 27.78 62.4061 30.1C62.4061 32.4067 61.9461 33.9133 61.0261 34.62C60.2661 35.2067 58.7128 35.5 56.3661 35.5H50.0061V39H45.6061V24.7ZM50.0061 31.8H56.3661C56.8861 31.8 57.2794 31.6867 57.5461 31.46C57.8661 31.1933 58.0261 30.74 58.0261 30.1C58.0261 29.4733 57.8661 29.02 57.5461 28.74C57.2794 28.5133 56.8861 28.4 56.3661 28.4H50.0061V31.8ZM84.4833 31.86C84.4833 35.34 84.0633 37.42 83.2233 38.1C82.3166 38.8333 79.5833 39.2 75.0233 39.2C71.6899 39.2 69.5033 39.08 68.4633 38.84C67.1566 38.5333 66.3299 37.8667 65.9833 36.84C65.7166 36.0533 65.5833 34.3933 65.5833 31.86C65.5833 28.38 65.9966 26.3 66.8233 25.62C67.7299 24.8733 70.4633 24.5 75.0233 24.5C79.5699 24.5 82.2966 24.8667 83.2033 25.6C84.0566 26.2933 84.4833 28.38 84.4833 31.86ZM69.9833 31.86C69.9833 33.6867 70.1899 34.7533 70.6033 35.06C71.0299 35.3533 72.5033 35.5 75.0233 35.5C77.5566 35.5 79.0299 35.3533 79.4433 35.06C79.8699 34.7533 80.0833 33.6867 80.0833 31.86C80.0833 30.02 79.8699 28.9533 79.4433 28.66C79.0299 28.3533 77.5633 28.2 75.0433 28.2C72.5099 28.2 71.0299 28.3533 70.6033 28.66C70.1899 28.9533 69.9833 30.02 69.9833 31.86ZM87.7513 24.72H92.1513V29.72H101.651V24.72H106.051V39H101.651V33.42H92.1513V39H87.7513V24.72ZM110.215 24.72H114.615V34.56C114.508 34.9333 114.402 35.3 114.295 35.66C114.282 35.7933 114.275 35.9267 114.275 36.06C114.368 36.06 114.455 35.9733 114.535 35.8C114.628 35.6267 114.715 35.4533 114.795 35.28L122.315 24.72H129.515V39H125.115V29.14C125.115 29.1267 125.228 28.76 125.455 28.04C125.455 27.9067 125.462 27.7733 125.475 27.64C125.382 27.64 125.288 27.7333 125.195 27.92C125.115 28.0933 125.035 28.26 124.955 28.42L117.415 39H110.215V24.72ZM134.079 24.72H138.479V29.72H147.979V24.72H152.379V39H147.979V33.42H138.479V39H134.079V24.72Z" fill="white"/>
</svg>
