<svg width="610" height="88" fill="none" xmlns="http://www.w3.org/2000/svg"><path d="M.038 31.9s.331.067.972.2c.64.135 1.595.298 2.819.658 2.458.655 5.997 1.895 10.22 4.081 4.241 2.15 9.055 5.359 14.363 9.272 5.33 3.887 11.07 8.621 17.72 13.183 3.324 2.275 6.915 4.457 10.83 6.275 3.9 1.836 8.167 3.235 12.693 3.801 2.265.221 4.576.35 6.914.101 1.206-.051 2.332-.274 3.502-.432.58-.096 1.16-.248 1.742-.37.584-.124 1.168-.252 1.74-.438.577-.169 1.155-.338 1.735-.51l1.71-.62c.576-.195 1.14-.432 1.699-.68.56-.249 1.132-.474 1.686-.741a66.089 66.089 0 0 0 6.543-3.606c8.563-5.361 16.232-12.587 24.792-18.924 4.268-3.177 8.809-6.137 13.793-8.273 4.955-2.166 10.393-3.417 15.876-3.297 5.475.03 10.881 1.517 15.828 3.747 4.966 2.252 9.485 5.269 13.796 8.415 8.583 6.35 16.343 13.449 24.925 18.67 4.283 2.594 8.727 4.733 13.392 5.89.593.188 1.163.257 1.738.366l1.72.304 1.751.155.871.078c.29.017.582.004.872.009.582 0 1.161 0 1.738.002.577-.003 1.151-.084 1.724-.122 1.15-.057 2.276-.267 3.397-.45 4.488-.78 8.663-2.452 12.56-4.294 3.898-1.867 7.507-4.02 10.9-6.2 6.779-4.382 12.732-8.84 18.202-12.524 5.441-3.725 10.365-6.744 14.618-8.857 4.242-2.135 7.79-3.355 10.246-3.998 1.213-.376 2.182-.517 2.82-.668l.972-.205.029.152-.962.234c-.63.17-1.587.34-2.782.751-2.418.715-5.9 2.033-10.041 4.28-4.146 2.233-8.987 5.297-14.324 9.135-5.359 3.808-11.26 8.327-18.035 12.835-3.394 2.243-7.02 4.473-10.977 6.434-1.968 1-4.051 1.865-6.202 2.65-1.074.394-2.191.703-3.299 1.055-1.139.253-2.266.594-3.437.778-4.658.834-9.637.927-14.528-.334-4.817-1.181-9.471-3.387-13.806-6.086-8.722-5.406-16.454-12.57-24.902-18.944-4.229-3.17-8.643-6.196-13.467-8.457-4.798-2.27-10.011-3.818-15.369-3.952-5.332-.205-10.693.921-15.618 2.982-4.935 2.077-9.463 4.986-13.734 8.125-8.515 6.343-16.12 13.61-24.625 19.241-2.133 1.39-4.317 2.674-6.564 3.797-.56.284-1.138.527-1.705.792a20.77 20.77 0 0 1-1.723.731l-1.742.672-1.772.56c-4.732 1.47-9.671 1.868-14.37 1.36a41.944 41.944 0 0 1-13.124-3.87c-3.998-1.897-7.628-4.147-10.97-6.472-6.681-4.664-12.396-9.423-17.607-13.426-5.201-4.012-9.933-7.245-14.06-9.508-4.11-2.293-7.588-3.623-9.994-4.355-1.193-.405-2.147-.608-2.78-.77l-.963-.238.034-.15Z" fill="#1C4A20"/><path d="m.038 22.71.972.199c.64.136 1.595.298 2.819.659 2.458.654 5.997 1.895 10.22 4.08 4.241 2.15 9.056 5.358 14.363 9.271 5.33 3.888 11.07 8.622 17.72 13.184 3.324 2.275 6.915 4.456 10.828 6.276 3.9 1.836 8.168 3.234 12.694 3.8 2.265.22 4.576.35 6.914.102 1.207-.051 2.333-.275 3.502-.432.58-.096 1.16-.248 1.742-.37.584-.124 1.169-.252 1.742-.437l1.734-.51c.569-.207 1.138-.414 1.71-.62a20.275 20.275 0 0 0 1.698-.681c.56-.248 1.132-.474 1.686-.741a66.113 66.113 0 0 0 6.543-3.607c8.563-5.36 16.232-12.586 24.792-18.923 4.269-3.177 8.809-6.137 13.793-8.273 4.956-2.166 10.394-3.416 15.875-3.297 5.476.03 10.882 1.517 15.829 3.747 4.966 2.25 9.485 5.27 13.796 8.415 8.583 6.352 16.342 13.45 24.924 18.67 4.284 2.594 8.728 4.733 13.393 5.89.592.188 1.163.258 1.738.367.574.1 1.148.203 1.719.303l1.751.155.872.078c.29.018.582.005.872.01.581 0 1.16 0 1.738.002.577-.004 1.15-.084 1.724-.122 1.149-.057 2.276-.267 3.397-.45 4.488-.78 8.662-2.452 12.56-4.293 3.898-1.869 7.507-4.022 10.9-6.202 6.778-4.382 12.731-8.84 18.201-12.524 5.441-3.725 10.365-6.744 14.617-8.857 4.243-2.134 7.792-3.353 10.247-3.997 1.213-.376 2.183-.517 2.82-.668l.973-.205.028.152-.962.234c-.63.17-1.586.34-2.782.751-2.418.715-5.899 2.032-10.041 4.278-4.147 2.234-8.987 5.298-14.324 9.136-5.358 3.808-11.259 8.326-18.035 12.835-3.394 2.243-7.019 4.473-10.977 6.434-1.968 1-4.05 1.866-6.201 2.65-1.074.394-2.191.703-3.3 1.055-1.138.253-2.265.595-3.437.779-4.657.834-9.637.927-14.528-.334-4.817-1.18-9.471-3.387-13.805-6.086-8.722-5.406-16.454-12.572-24.902-18.944-4.229-3.171-8.643-6.196-13.467-8.457-4.798-2.27-10.011-3.818-15.369-3.952-5.332-.205-10.693.92-15.619 2.98-4.935 2.079-9.463 4.988-13.734 8.126-8.514 6.343-16.12 13.61-24.625 19.24-2.134 1.391-4.317 2.675-6.564 3.798-.56.283-1.139.527-1.706.792-.566.265-1.137.518-1.724.731l-1.74.672-1.773.56c-4.732 1.47-9.672 1.868-14.37 1.36a41.926 41.926 0 0 1-13.125-3.871c-3.997-1.897-7.627-4.146-10.969-6.471-6.681-4.665-12.396-9.424-17.607-13.426-5.202-4.012-9.934-7.245-14.06-9.509-4.11-2.293-7.588-3.623-9.994-4.355-1.193-.405-2.147-.608-2.78-.77L0 22.86l.038-.15Z" fill="#1C4A20"/><path d="m306.823 66.967-.972-.2c-.637-.148-1.6-.282-2.819-.654-2.465-.64-6.008-1.864-10.253-3.999-4.253-2.114-9.173-5.14-14.611-8.869-5.47-3.686-11.41-8.161-18.178-12.56-3.388-2.19-6.994-4.353-10.892-6.233-3.896-1.852-8.066-3.555-12.567-4.357-1.125-.188-2.254-.404-3.408-.467-.575-.04-1.151-.124-1.731-.13l-1.747-.006c-.291.003-.584-.012-.877.002l-.877.068-1.764.135-1.755.29c-.586.104-1.181.174-1.755.35-4.675 1.1-9.205 3.203-13.517 5.79-8.676 5.175-16.453 12.284-24.988 18.642-4.267 3.176-8.738 6.221-13.653 8.506-4.881 2.301-10.228 3.884-15.711 4.012-.347.01-.667.041-1.039.034l-1.013-.029c-.678-.033-1.344-.004-2.031-.09l-2.055-.217c-.681-.088-1.347-.234-2.023-.349-2.677-.54-5.321-1.302-7.824-2.379-5.036-2.102-9.629-5.037-13.943-8.185-8.613-6.335-16.267-13.551-24.737-18.955a69.182 69.182 0 0 0-6.475-3.637c-.548-.272-1.113-.502-1.667-.755a19.544 19.544 0 0 0-1.68-.697l-1.692-.636c-.573-.177-1.146-.352-1.717-.526-.566-.192-1.146-.325-1.724-.455-.58-.128-1.15-.286-1.73-.388-1.166-.17-2.316-.413-3.482-.467-.568-.041-1.184-.111-1.71-.128l-1.77-.01c-.596-.022-1.155.03-1.717.071-.564.048-1.122.06-1.684.136-4.51.546-8.78 1.912-12.678 3.738-3.913 1.806-7.508 3.977-10.838 6.242-6.66 4.544-12.414 9.262-17.744 13.147-5.31 3.91-10.13 7.112-14.37 9.26-4.22 2.185-7.763 3.422-10.213 4.08-1.217.365-2.178.533-2.819.672l-.972.205-.03-.152.962-.234c.634-.158 1.583-.355 2.781-.756 2.414-.729 5.888-2.063 10.001-4.357 4.128-2.265 8.856-5.505 14.054-9.52 5.212-4.004 10.91-8.78 17.582-13.463 3.337-2.334 6.964-4.594 10.962-6.503 3.98-1.933 8.428-3.34 13.14-3.934.588-.08 1.197-.098 1.797-.149.604-.044 1.214-.098 1.794-.078l1.77.004c.656.019 1.223.087 1.842.13 1.219.056 2.422.302 3.641.479.607.105 1.204.267 1.808.4.605.134 1.21.273 1.8.469.596.18 1.192.362 1.79.544l1.759.655c.593.208 1.17.456 1.743.717.572.26 1.159.498 1.725.776 2.277 1.1 4.477 2.386 6.632 3.766 8.597 5.588 16.219 12.864 24.68 19.21 4.226 3.167 8.7 6.102 13.584 8.213 2.423 1.096 4.976 1.885 7.571 2.463.653.124 1.304.28 1.959.378l1.969.247c.652.097 1.343.082 2.013.129l1.012.048c.304.013.658-.011.985-.015 5.352-.035 10.623-1.49 15.489-3.689 4.873-2.227 9.337-5.225 13.61-8.364 8.496-6.367 16.209-13.52 24.838-18.971 4.305-2.707 8.873-4.95 13.682-6.186 4.799-1.309 9.79-1.257 14.426-.437 1.168.18 2.294.514 3.43.761 1.108.347 2.223.65 3.298 1.038 2.15.773 4.233 1.628 6.202 2.623 3.958 1.949 7.588 4.168 10.986 6.402 6.785 4.491 12.702 8.991 18.06 12.798 5.34 3.834 10.184 6.89 14.329 9.124 4.14 2.246 7.625 3.56 10.034 4.277 1.19.417 2.153.592 2.783.765l.963.239-.034.151Z" fill="#1C4A20"/><path d="m3.371 76.005.963-.239c.634-.16 1.588-.365 2.78-.77 2.406-.732 5.884-2.062 9.994-4.355 4.126-2.265 8.858-5.497 14.06-9.509 5.211-4.002 10.926-8.76 17.608-13.426 3.342-2.324 6.972-4.574 10.97-6.47a41.907 41.907 0 0 1 13.124-3.87c4.698-.509 9.638-.111 14.37 1.36l1.773.56 1.74.671c.587.213 1.158.467 1.725.732.566.265 1.145.508 1.705.792 2.247 1.123 4.431 2.406 6.564 3.797 8.504 5.631 16.111 12.898 24.625 19.24 4.272 3.14 8.799 6.049 13.734 8.126 4.926 2.06 10.286 3.186 15.619 2.98 5.359-.133 10.571-1.683 15.369-3.952 4.823-2.261 9.238-5.286 13.467-8.456 8.447-6.374 16.18-13.539 24.901-18.946 4.335-2.698 8.989-4.904 13.806-6.085 4.891-1.262 9.87-1.168 14.527-.334 1.172.184 2.299.525 3.438.779 1.108.352 2.225.661 3.299 1.054 2.151.785 4.233 1.651 6.201 2.65 3.958 1.962 7.584 4.192 10.977 6.434 6.777 4.51 12.678 9.027 18.036 12.835 5.336 3.838 10.177 6.902 14.323 9.136 4.143 2.247 7.623 3.565 10.041 4.28 1.196.412 2.152.58 2.783.75.634.156.962.235.962.235l-.029.152-.973-.205c-.637-.15-1.605-.291-2.82-.668-2.454-.643-6.003-1.864-10.246-3.997-4.252-2.113-9.176-5.132-14.617-8.857-5.47-3.685-11.423-8.143-18.202-12.524-3.393-2.18-7.003-4.333-10.901-6.201-3.898-1.842-8.072-3.514-12.56-4.294-1.121-.183-2.248-.392-3.397-.45-.572-.037-1.147-.118-1.724-.121l-1.738.001c-.29.004-.582-.008-.872.01l-.871.078-1.751.155-1.72.303c-.575.11-1.146.179-1.738.367-4.665 1.156-9.109 3.295-13.393 5.89-8.582 5.22-16.342 12.319-24.924 18.67-4.311 3.145-8.831 6.164-13.796 8.415-4.947 2.23-10.353 3.717-15.829 3.747-5.482.119-10.92-1.131-15.876-3.297-4.984-2.136-9.524-5.096-13.792-8.274-8.561-6.336-16.229-13.562-24.792-18.923a66.25 66.25 0 0 0-6.543-3.606c-.555-.267-1.127-.493-1.686-.741a20.282 20.282 0 0 0-1.698-.682l-1.71-.62-1.735-.51c-.572-.185-1.157-.313-1.74-.438-.584-.12-1.163-.274-1.743-.37-1.17-.157-2.296-.38-3.502-.432-2.338-.249-4.65-.119-6.914.101-4.526.567-8.794 1.964-12.694 3.801-3.914 1.819-7.504 4-10.83 6.275-6.65 4.562-12.389 9.297-17.72 13.183-5.308 3.914-10.122 7.122-14.363 9.271-4.222 2.187-7.761 3.428-10.22 4.082-1.223.36-2.179.523-2.818.66-.642.131-.972.2-.972.2l-.035-.15Z" fill="#1C4A20"/><path d="m306.823 85.344-.972-.2c-.637-.148-1.6-.282-2.819-.654-2.465-.64-6.008-1.864-10.253-3.999-4.254-2.113-9.174-5.14-14.612-8.869-5.469-3.686-11.409-8.16-18.177-12.562-3.388-2.188-6.994-4.352-10.892-6.232-3.896-1.852-8.066-3.554-12.567-4.357-1.125-.188-2.254-.404-3.408-.467-.575-.04-1.151-.124-1.731-.13l-1.747-.006c-.291.003-.584-.011-.877.003l-.877.067-1.764.136-1.755.289c-.586.104-1.181.174-1.755.35-4.675 1.1-9.205 3.203-13.517 5.79-8.676 5.175-16.453 12.285-24.987 18.642-4.268 3.176-8.739 6.221-13.654 8.506-4.881 2.301-10.228 3.883-15.711 4.011-.347.011-.667.042-1.039.035l-1.013-.029c-.678-.034-1.344-.004-2.031-.09l-2.054-.216c-.682-.088-1.348-.234-2.024-.349-2.677-.54-5.321-1.303-7.824-2.379-5.036-2.102-9.629-5.037-13.943-8.184-8.613-6.335-16.267-13.551-24.737-18.956a69.182 69.182 0 0 0-6.475-3.637c-.548-.272-1.113-.503-1.667-.755a20.023 20.023 0 0 0-1.68-.697l-1.692-.636-1.717-.526c-.566-.192-1.146-.325-1.724-.455-.58-.128-1.15-.286-1.73-.388-1.166-.17-2.316-.413-3.482-.467-.568-.04-1.184-.111-1.71-.128l-1.77-.01c-.596-.022-1.155.031-1.717.071-.564.048-1.122.06-1.684.136-4.51.545-8.78 1.912-12.678 3.738-3.913 1.806-7.508 3.977-10.838 6.243-6.66 4.543-12.414 9.262-17.744 13.147-5.31 3.91-10.13 7.112-14.37 9.26-4.22 2.186-7.762 3.42-10.213 4.08-1.217.365-2.178.532-2.819.671l-.972.206-.03-.153.962-.234c.634-.158 1.583-.355 2.781-.756 2.414-.729 5.888-2.063 10.001-4.357 4.128-2.265 8.856-5.504 14.054-9.52 5.211-4.004 10.91-8.78 17.582-13.463 3.337-2.334 6.964-4.594 10.962-6.504 3.98-1.933 8.427-3.34 13.14-3.934.588-.08 1.197-.098 1.797-.15.604-.043 1.214-.098 1.794-.077l1.77.004c.656.019 1.223.088 1.842.13 1.219.056 2.422.302 3.641.479.607.106 1.204.267 1.808.4.605.135 1.21.273 1.8.47.596.18 1.192.362 1.79.544l1.759.655c.593.208 1.17.456 1.743.717.572.26 1.159.498 1.725.777 2.277 1.1 4.477 2.386 6.632 3.766 8.597 5.588 16.219 12.864 24.68 19.21 4.226 3.166 8.7 6.102 13.584 8.213 2.424 1.096 4.976 1.885 7.572 2.463.653.123 1.304.28 1.959.377l1.969.247c.652.097 1.343.082 2.012.129l1.012.049c.304.012.659-.012.986-.015 5.352-.036 10.623-1.49 15.488-3.689 4.874-2.227 9.338-5.225 13.611-8.364 8.495-6.367 16.209-13.521 24.838-18.971 4.305-2.707 8.872-4.95 13.682-6.186 4.799-1.309 9.79-1.258 14.426-.436 1.169.178 2.294.514 3.43.76 1.108.347 2.223.65 3.298 1.039 2.15.773 4.234 1.627 6.201 2.622 3.959 1.95 7.589 4.169 10.986 6.403 6.786 4.49 12.703 8.99 18.06 12.798 5.341 3.835 10.185 6.89 14.33 9.123 4.139 2.246 7.625 3.561 10.034 4.277 1.19.417 2.153.592 2.783.764l.963.24-.035.15Z" fill="#1C4A20"/><path fill-rule="evenodd" clip-rule="evenodd" d="M19.034 0c1.456 1.656 2.525 3.478 3.04 5.599.8 3.29.087 6.353-1.413 9.299-1.36 2.672-3.259 4.915-5.487 6.893-.306.271-.4.515-.324.931.283 1.566.512 3.14.771 4.776.268-.056.49-.109.715-.148 4.466-.796 9.74 2.106 8.928 8.541-.49 3.896-2.829 6.407-6.518 7.658-.466.159-.51.36-.447.776.268 1.754.632 3.505.722 5.27.127 2.482-.721 4.646-2.765 6.193-2.418 1.83-6.017 1.563-8.008-.551-1.3-1.381-1.445-3.631-.323-5.05.827-1.048 2.11-1.45 3.354-1.053 1.194.38 2.045 1.506 2.128 2.814.085 1.353-.64 2.598-1.828 3.132-.16.072-.325.131-.546.22.45.448.983.519 1.511.543 2.218.104 4.096-1.203 4.95-3.442a7.272 7.272 0 0 0 .388-3.898c-.255-1.48-.475-2.967-.72-4.518l-.639.058c-4.23.363-7.925-.762-10.546-4.236-3.72-4.926-3.383-11.086.686-15.78 1.765-2.038 3.846-3.734 5.908-5.45.318-.265.463-.492.389-.951-.504-3.151-.457-6.28.515-9.356.97-3.07 2.508-5.773 5.018-7.856.166-.135.34-.26.541-.414Zm-5.223 23.075c-.113.063-.183.085-.232.13-1.265 1.166-2.599 2.267-3.773 3.518-2.159 2.299-3.327 5.016-2.838 8.228.518 3.409 2.304 5.897 5.604 7.134 1.381.517 2.818.566 4.327.26l-1.805-11.272c-1.385.862-2.332 1.94-2.647 3.465-.402 1.946.537 3.381 1.891 4.657a2.337 2.337 0 0 1-.683-.178c-1.902-.877-2.808-2.464-3-4.46-.263-2.729 1.088-4.695 3.234-6.161.555-.38.717-.683.585-1.328-.269-1.307-.444-2.633-.663-3.993Zm.19-5.717c2.25-1.552 4.28-3.179 5.763-5.38 1.566-2.324 2.013-4.812 1-7.488-.39-1.028-1.022-1.17-1.782-.398-2.452 2.49-4.045 5.45-4.807 8.856a12.15 12.15 0 0 0-.174 4.41Zm3.956 24.723c.236-.089.423-.147.6-.228 1.877-.848 3.19-2.238 3.915-4.16.987-2.627.172-5.118-2.172-6.642-1.3-.846-2.696-.92-4.18-.434.614 3.835 1.22 7.62 1.837 11.464ZM67.282 60.523v-9.54c.2-.087.297-.04.34.163.213.987.743 1.77 1.52 2.41.624.512 1.111 1.142 1.199 1.972.044.422-.046.86-.07 1.29-.008.121-.026.25.005.363.279 1.021.021 1.929-.592 2.765.041-.127.086-.252.124-.38.04-.139.079-.278.11-.42.264-1.17-.031-2.149-.995-2.9-.448-.349-.888-.707-1.359-1.082v.312c0 1.877.003 3.754-.003 5.63-.001.177-.028.367-.094.529-.384.933-1.683 1.609-2.671 1.403-.55-.114-.85-.565-.66-1.09.103-.286.283-.573.499-.789.568-.568 1.262-.875 2.085-.788.182.018.36.095.562.152Zm.357-7.337c.176.66.37 1.258.83 1.726.503.512 1.015 1.016 1.534 1.533.03-.679-.145-1.31-.64-1.789-.53-.512-1.12-.96-1.724-1.47ZM165.311 80.543l3.179-6.842 12.467 5.79-.135.292c-1.086 2.335-2.173 4.668-3.251 7.006-.177.385-.442.666-.826.823-.859.35-1.714.388-2.518-.147-.5-.334-.567-.911-.129-1.32.242-.227.561-.408.877-.51.716-.23 1.434-.2 2.094.206.157.096.285.242.437.374l2.404-5.175-5.833-2.71-.129.278c-.833 1.793-1.669 3.583-2.495 5.378-.161.348-.4.606-.743.758-.869.386-1.738.435-2.567-.103-.538-.348-.591-.95-.111-1.378.703-.63 1.542-.703 2.424-.487.377.092.699.285.935.644l2.416-5.203-5.843-2.713a116.9 116.9 0 0 1-.131.283c-.828 1.783-1.663 3.566-2.482 5.354-.165.36-.407.626-.759.778-.86.375-1.726.425-2.544-.106-.562-.366-.586-.966-.09-1.421.835-.768 2.672-.755 3.286.12.009.01.03.013.067.03Zm8.824-3.028c-1.957-.91-3.891-1.807-5.826-2.705l-.187.403 5.827 2.706c.063-.14.119-.26.186-.404Zm6.103 2.834-5.822-2.704-.187.402 5.822 2.704.187-.402ZM296.897 28.681l1.024-.358c0 .626.005 1.22-.006 1.814-.002.052-.094.122-.158.147-.225.094-.46.166-.686.26-.064.026-.156.096-.157.148-.011.586-.007 1.172-.007 1.795l1.015-.355c0 .629.004 1.22-.007 1.813-.002.052-.094.122-.158.15a5.417 5.417 0 0 1-.637.232c-.171.047-.221.135-.219.309.009.777.003 1.553.003 2.348h-.422v-2.42c-.498.18-.954.34-1.404.52-.057.023-.098.158-.099.242-.009.607-.005 1.215-.005 1.822v.289h-.419v-2.163l-1.034.359c0-.618-.006-1.204.007-1.79.001-.06.095-.143.164-.172.224-.096.461-.163.683-.264.071-.031.158-.131.159-.2.014-.562.007-1.123.007-1.734l-1.021.349c0-.62-.002-1.213.005-1.805 0-.047.061-.096.103-.135.024-.024.065-.028.099-.042.268-.107.639-.142.773-.34.136-.199.04-.559.041-.849.002-.552 0-1.105 0-1.68h.433v2.413c.489-.177.942-.33 1.384-.51.065-.025.113-.171.114-.262.009-.607.003-1.215.002-1.823v-.28h.424l-.001 2.172Zm-1.92 4.514c.482-.175.933-.332 1.377-.507.057-.021.11-.133.113-.206.012-.37.007-.741.007-1.112v-.612c-.496.18-.937.338-1.375.505-.052.018-.116.095-.117.146-.009.585-.005 1.17-.005 1.786ZM263.442 33.8v-7.833c-.701.26-1.377.51-2.05.761-2.197.819-4.392 1.642-6.593 2.45-.258.094-.339.218-.338.489.011 2.665-.035 5.332.024 7.996.029 1.294-.573 2.108-1.613 2.702-.686.392-1.418.623-2.221.467-.921-.179-1.329-.92-.925-1.767.559-1.173 1.564-1.778 2.807-1.964.467-.07.961.05 1.49.087v-.337c0-3.25.007-6.5-.007-9.748-.001-.307.09-.435.377-.54 2.415-.886 4.824-1.791 7.236-2.688.72-.269 1.443-.529 2.211-.81.011.178.025.313.025.447.002 3.706 0 7.413.007 11.119.001.601-.248 1.083-.653 1.49-.862.872-1.881 1.38-3.141 1.198-.905-.13-1.288-.852-.969-1.715.465-1.262 2.668-2.618 4.333-1.804Zm-8.945-4.924c.148-.052.267-.091.384-.135l8.049-3.002c.58-.216.581-.214.493-.899-.109.037-.215.07-.319.11l-8.09 3.01c-.583.217-.583.216-.517.916ZM107.145 24.349c9.377-.633 18.753-1.263 28.129-1.907.387-.026.572.08.734.44 1.903 4.254 3.825 8.5 5.742 12.746l.226.498c.377-.272.67-.554 1.019-.726 1.708-.84 3.404-.71 5.053.175.309.167.589.428.817.7.689.827.583 1.843-.304 2.462-1.629 1.136-3.37 1.038-5.125.319-.769-.316-1.292-.888-1.636-1.657-1.614-3.608-3.254-7.204-4.862-10.816-.18-.403-.385-.515-.814-.483-3.972.285-7.947.548-11.92.817-.368.026-.735.057-1.147.089l4.578 10.14c.404-.298.757-.654 1.183-.855 1.638-.772 3.279-.659 4.859.175.784.414 1.423 1.025 1.327 2.005-.096.974-.845 1.44-1.673 1.744-2.589.947-5.001-.08-6.131-2.583-1.515-3.355-3.038-6.706-4.534-10.07-.188-.421-.404-.537-.855-.503-3.249.24-6.501.451-9.751.672-1.096.075-2.192.148-3.324.224l4.584 10.154c.053-.02.1-.024.116-.047 1.186-1.646 4.746-1.712 6.456-.22 1.1.96 1.033 2.199-.196 2.976-1.316.833-2.747.827-4.194.427-1.142-.316-1.936-.994-2.436-2.128-2.074-4.694-4.206-9.36-6.318-14.037a97.182 97.182 0 0 0-.303-.67c.309-.027.505-.048.7-.061Zm13.801 1.25c-4.111.277-8.225.554-12.338.833-.16.011-.318.027-.479.04.196.923.228.95 1.123.889l12.229-.827c.195-.013.39-.033.626-.053-.293-.94-.293-.942-1.161-.883Zm2.572.805 12.505-.849c.105-.007.21-.02.315-.03-.113-.87-.2-.947-1.037-.89-4.151.275-8.303.553-12.453.832-.138.01-.276.03-.417.045.208.925.242.95 1.087.892ZM85.35 32.878c1.431-.834 2.948-.842 4.451-.271a4.427 4.427 0 0 1 1.56 1.03c.775.8.598 1.87-.313 2.53-1.635 1.185-4.558 1.017-6.023-.37-.255-.242-.458-.566-.605-.888-1.55-3.418-3.084-6.843-4.622-10.267l-.256-.57c-.55 1.07-1.06 2.084-1.59 3.088-1.144 2.16-.881 4.187.56 6.107.174.232.359.455.546.674.173.202.358.395.537.592-1.805-1.022-3.019-2.467-3.345-4.56-.037-.231-.176-.451-.289-.666-.4-.764-.921-1.487-1.186-2.296-.52-1.584-.149-3.134.568-4.58.894-1.804 1.218-3.665.796-5.64-.087-.407.05-.57.489-.576l7.82 17.403c.322-.268.583-.553.902-.74Zm-9.51-8.256c-.51 1.279-.31 2.574.302 3.786.52-1.367 1.042-2.706 1.54-4.053.456-1.23.32-2.48.1-3.829-.683 1.425-1.395 2.728-1.942 4.096ZM194.969 33.903l7.944-12.852c-.241-.342-.458-.371-.723-.094-1.381 1.447-3.071 2.244-5.055 2.503-1.194.156-2.345.513-3.317 1.27-1.834 1.429-2.447 3.373-2.296 5.627.142-.502.26-1.01.426-1.504.766-2.31 2.277-3.732 4.769-3.99 1.128-.116 2.249-.273 3.403-.414-.066.124-.131.264-.211.395-1.925 3.116-3.825 6.248-5.79 9.338-.686 1.08-.794 2.162-.389 3.316.496 1.412 1.302 2.595 2.743 3.198 1.255.525 2.297-.089 2.508-1.437.312-1.997-1.429-5.173-4.012-5.356ZM83.23 76.2c-1.059-1.274-1.623-2.74-1.57-4.403.052-1.68 1.133-2.484 2.777-2.126.962.211 1.784.688 2.555 1.276.102.078.214.141.393.256V60.98h.812v19.142c-1.813-1.224-3.61-2.293-4.966-3.923Zm4.136-3.495c0-.1-.027-.243-.095-.298-.63-.5-1.294-.962-2.14-.938-.534.016-.843.373-.988.87-.217.753-.054 1.476.192 2.184.485 1.386 1.607 2.739 3.035 3.64 0-1.875.001-3.667-.004-5.458ZM236.775 63.426c4.403 1.64 8.806 3.282 13.211 4.918.182.067.245.154.244.351-.008 2.33-.005 4.659-.005 6.99v.272c.228-.046.42-.113.614-.121.952-.03 1.698.376 2.266 1.12.107.14.181.316.228.487.145.518-.113.96-.645 1.06-.975.182-1.749-.22-2.4-.91-.285-.302-.406-.67-.404-1.091.006-1.977-.001-3.953.009-5.93.002-.221-.069-.312-.271-.387-1.869-.688-3.735-1.386-5.6-2.08a70.37 70.37 0 0 0-.541-.196v5.562c.245-.05.479-.141.715-.146.905-.015 1.63.373 2.178 1.08.273.35.439.76.193 1.187-.245.424-.681.481-1.121.45-1.375-.101-2.263-1.065-2.263-2.44.001-1.84-.004-3.68.006-5.521.002-.23-.073-.328-.285-.405-1.531-.559-3.056-1.131-4.582-1.7l-1.562-.582v5.571c.028.002.05.01.062.002.88-.505 2.516.197 2.988 1.228.305.664.018 1.215-.702 1.316-.77.108-1.421-.188-1.998-.668-.455-.379-.678-.852-.672-1.471.02-2.566.008-5.132.008-7.697v-.367c.144.053.238.083.329.118Zm6.033 3.408c-1.931-.72-3.863-1.44-5.794-2.158-.075-.028-.15-.053-.227-.081-.101.462-.091.48.329.636 1.915.713 3.829 1.427 5.744 2.139.091.035.184.067.296.105.059-.49.059-.49-.348-.64Zm1.005.897 5.874 2.187.15.05c.128-.42.104-.472-.289-.62l-5.847-2.182c-.064-.024-.131-.044-.199-.067-.095.465-.085.484.311.632ZM168.317 48.018c.62.49 1.066 1.098 1.071 1.925.004.634-.445.987-1.064.863-.777-.158-1.289-.665-1.67-1.324-.303-.522-.348-1.049-.117-1.636.929-2.363 1.828-4.737 2.736-7.105l.12-.313 6.537 2.507-2.711 7.069c.547-.005.752.025 1.122.253.738.455 1.243 1.088 1.326 1.977.069.713-.406 1.121-1.104.97-.742-.159-1.239-.651-1.609-1.28-.322-.544-.374-1.096-.129-1.713.715-1.784 1.386-3.585 2.076-5.38l.102-.267-6.018-2.309-2.057 5.361c.565-.086 1.004.096 1.389.402Zm.794-6.066 5.991 2.298.157-.41-5.991-2.298-.157.41ZM132.68 68.39c-.743-.891-1.137-1.918-1.099-3.084.036-1.175.793-1.738 1.944-1.488.673.147 1.249.483 1.787.892.073.055.151.1.276.18v-7.156h.568v13.4c-1.269-.855-2.527-1.605-3.476-2.745Zm2.894-2.447c-.001-.073-.018-.171-.067-.21-.44-.349-.905-.674-1.498-.657-.373.01-.589.261-.691.61-.153.527-.038 1.032.134 1.527.339.972 1.125 1.918 2.124 2.55.001-1.313.001-2.568-.002-3.82Z" fill="#1C4A20"/><path d="M303.179 31.9s.331.067.971.2c.641.135 1.596.298 2.82.658 2.457.655 5.997 1.895 10.219 4.081 4.242 2.15 9.056 5.359 14.364 9.272 5.33 3.887 11.069 8.621 17.719 13.183 3.325 2.275 6.916 4.457 10.83 6.275 3.9 1.836 8.167 3.235 12.694 3.801 2.265.221 4.575.35 6.914.101 1.206-.051 2.332-.274 3.501-.432.581-.096 1.16-.248 1.743-.37.584-.124 1.168-.252 1.74-.438.577-.169 1.154-.338 1.734-.51l1.71-.62c.577-.195 1.14-.432 1.7-.68.559-.249 1.131-.474 1.685-.741a66.067 66.067 0 0 0 6.544-3.606c8.562-5.361 16.232-12.587 24.791-18.924 4.269-3.177 8.809-6.137 13.794-8.273 4.955-2.166 10.393-3.417 15.875-3.297 5.475.03 10.881 1.517 15.829 3.747 4.965 2.252 9.485 5.269 13.796 8.415 8.583 6.35 16.342 13.449 24.924 18.67 4.284 2.594 8.728 4.733 13.393 5.89.592.188 1.163.257 1.738.366l1.719.304 1.752.155.871.078c.29.017.582.004.872.009.581 0 1.16 0 1.738.002.577-.003 1.15-.084 1.724-.122 1.15-.057 2.275-.267 3.397-.45 4.488-.78 8.663-2.452 12.559-4.294 3.899-1.867 7.508-4.02 10.901-6.2 6.779-4.382 12.732-8.84 18.202-12.524 5.441-3.725 10.365-6.744 14.617-8.857 4.243-2.135 7.791-3.355 10.246-3.998 1.214-.376 2.183-.517 2.82-.668l.973-.205.028.152-.961.234c-.63.17-1.587.34-2.783.751-2.418.715-5.899 2.033-10.041 4.28-4.146 2.233-8.987 5.297-14.324 9.135-5.358 3.808-11.259 8.327-18.035 12.835-3.393 2.243-7.02 4.473-10.977 6.434-1.968 1-4.05 1.865-6.201 2.65-1.074.394-2.191.703-3.299 1.055-1.139.253-2.266.594-3.438.778-4.657.834-9.636.927-14.528-.334-4.817-1.181-9.47-3.387-13.805-6.086-8.722-5.406-16.455-12.57-24.902-18.944-4.229-3.17-8.644-6.196-13.467-8.457-4.799-2.27-10.011-3.818-15.37-3.952-5.331-.205-10.692.921-15.618 2.982-4.935 2.077-9.462 4.986-13.734 8.125-8.514 6.343-16.12 13.61-24.624 19.241-2.134 1.39-4.317 2.674-6.564 3.797-.56.284-1.139.527-1.706.792-.566.265-1.137.518-1.723.731l-1.741.672-1.772.56c-4.732 1.47-9.672 1.868-14.37 1.36a41.94 41.94 0 0 1-13.124-3.87c-3.998-1.897-7.629-4.147-10.97-6.472-6.682-4.664-12.396-9.423-17.607-13.426-5.202-4.012-9.934-7.245-14.06-9.508-4.111-2.293-7.588-3.623-9.994-4.355-1.193-.405-2.147-.608-2.78-.77l-.963-.238.034-.15Z" fill="#1C4A20"/><path d="m303.179 22.71.971.199c.641.136 1.596.298 2.82.659 2.458.654 5.997 1.895 10.219 4.08 4.242 2.15 9.056 5.358 14.364 9.271 5.33 3.888 11.069 8.622 17.719 13.184 3.325 2.275 6.915 4.456 10.829 6.276 3.9 1.836 8.168 3.234 12.694 3.8 2.265.22 4.576.35 6.914.102 1.206-.051 2.332-.275 3.501-.432.581-.096 1.16-.248 1.743-.37.584-.124 1.168-.252 1.741-.437l1.734-.51 1.71-.62a20.328 20.328 0 0 0 1.699-.681c.559-.248 1.131-.474 1.686-.741a66.122 66.122 0 0 0 6.543-3.607c8.562-5.36 16.231-12.586 24.791-18.923 4.269-3.177 8.809-6.137 13.794-8.273 4.956-2.166 10.394-3.416 15.875-3.297 5.476.03 10.882 1.517 15.829 3.747 4.965 2.25 9.484 5.27 13.796 8.415 8.583 6.352 16.342 13.45 24.924 18.67 4.283 2.594 8.727 4.733 13.392 5.89.593.188 1.163.258 1.738.367.575.1 1.148.203 1.72.303l1.751.155.871.078c.291.018.583.005.872.01.582 0 1.161 0 1.738.002.578-.004 1.151-.084 1.724-.122 1.15-.057 2.276-.267 3.397-.45 4.488-.78 8.663-2.452 12.56-4.293 3.898-1.869 7.507-4.022 10.9-6.202 6.779-4.382 12.731-8.84 18.202-12.524 5.441-3.725 10.365-6.744 14.617-8.857 4.243-2.134 7.791-3.353 10.247-3.997 1.213-.376 2.182-.517 2.82-.668l.972-.205.029.152-.962.234c-.631.17-1.587.34-2.782.751-2.418.715-5.9 2.032-10.041 4.278-4.147 2.234-8.987 5.298-14.325 9.136-5.358 3.808-11.259 8.326-18.034 12.835-3.394 2.243-7.019 4.473-10.977 6.434-1.968 1-4.051 1.866-6.201 2.65-1.075.394-2.192.703-3.3 1.055-1.139.253-2.265.595-3.437.779-4.658.834-9.637.927-14.528-.334-4.817-1.18-9.471-3.387-13.806-6.086-8.722-5.406-16.453-12.572-24.901-18.944-4.229-3.171-8.643-6.196-13.467-8.457-4.798-2.27-10.012-3.818-15.369-3.952-5.332-.205-10.694.92-15.619 2.98-4.935 2.079-9.463 4.988-13.734 8.126-8.515 6.343-16.12 13.61-24.625 19.24-2.134 1.391-4.317 2.675-6.565 3.798-.559.283-1.138.527-1.705.792-.567.265-1.137.518-1.724.731l-1.741.672-1.772.56c-4.732 1.47-9.673 1.868-14.371 1.36a41.923 41.923 0 0 1-13.124-3.871c-3.998-1.897-7.628-4.146-10.969-6.471-6.682-4.665-12.396-9.424-17.607-13.426-5.203-4.012-9.935-7.245-14.061-9.509-4.11-2.293-7.587-3.623-9.993-4.355-1.193-.405-2.148-.608-2.781-.77l-.963-.237.038-.15Z" fill="#1C4A20"/><path d="m609.963 66.967-.971-.2c-.638-.148-1.6-.282-2.819-.654-2.465-.64-6.008-1.864-10.254-3.999-4.252-2.114-9.172-5.14-14.61-8.869-5.471-3.686-11.41-8.161-18.179-12.56-3.388-2.19-6.993-4.353-10.891-6.233-3.897-1.852-8.067-3.555-12.567-4.357-1.125-.188-2.254-.404-3.409-.467-.575-.04-1.15-.124-1.731-.13l-1.746-.006c-.292.003-.585-.012-.877.002l-.877.068-1.764.135-1.755.29c-.586.104-1.182.174-1.755.35-4.675 1.1-9.205 3.203-13.517 5.79-8.676 5.175-16.453 12.284-24.989 18.642-4.267 3.176-8.738 6.221-13.653 8.506-4.88 2.301-10.227 3.884-15.71 4.012-.348.01-.668.041-1.039.034l-1.013-.029c-.678-.033-1.344-.004-2.031-.09l-2.055-.217c-.681-.088-1.347-.234-2.024-.349-2.677-.54-5.32-1.302-7.823-2.379-5.036-2.102-9.63-5.037-13.944-8.185-8.612-6.335-16.266-13.551-24.736-18.955a69.27 69.27 0 0 0-6.476-3.637c-.548-.272-1.113-.502-1.666-.755a19.523 19.523 0 0 0-1.68-.697l-1.692-.636c-.574-.177-1.146-.352-1.717-.526-.567-.192-1.146-.325-1.725-.455-.579-.128-1.15-.286-1.73-.388-1.165-.17-2.316-.413-3.481-.467-.569-.041-1.184-.111-1.71-.128l-1.77-.01c-.597-.022-1.155.03-1.717.071-.564.048-1.123.06-1.684.136-4.511.546-8.779 1.912-12.678 3.738-3.913 1.806-7.508 3.977-10.838 6.242-6.66 4.544-12.414 9.262-17.745 13.147-5.31 3.91-10.129 7.112-14.369 9.26-4.22 2.185-7.763 3.422-10.213 4.08-1.217.365-2.178.533-2.819.672l-.973.205-.029-.152.962-.234c.633-.158 1.583-.355 2.781-.756 2.414-.729 5.888-2.063 10.001-4.357 4.127-2.265 8.855-5.505 14.054-9.52 5.211-4.004 10.911-8.78 17.582-13.463 3.337-2.334 6.964-4.594 10.961-6.503 3.981-1.933 8.428-3.34 13.14-3.934.589-.08 1.197-.098 1.798-.149.603-.044 1.214-.098 1.793-.078l1.77.004c.657.019 1.224.087 1.842.13 1.219.056 2.422.302 3.642.479.606.105 1.203.267 1.808.4.605.134 1.21.273 1.8.469.596.18 1.192.362 1.789.544l1.759.655c.594.208 1.17.456 1.743.717.573.26 1.159.498 1.726.776 2.276 1.1 4.476 2.386 6.632 3.766 8.597 5.588 16.218 12.864 24.68 19.21 4.226 3.167 8.7 6.102 13.584 8.213 2.423 1.096 4.975 1.885 7.571 2.463.652.124 1.304.28 1.959.378l1.969.247c.652.097 1.343.082 2.012.129l1.012.048c.304.013.659-.011.986-.015 5.352-.035 10.623-1.49 15.488-3.689 4.874-2.227 9.338-5.225 13.61-8.364 8.496-6.367 16.21-13.52 24.839-18.971 4.305-2.707 8.872-4.95 13.681-6.186 4.8-1.309 9.791-1.257 14.427-.437 1.168.18 2.294.514 3.43.761 1.108.347 2.223.65 3.297 1.038 2.151.773 4.234 1.628 6.202 2.623 3.959 1.949 7.589 4.168 10.986 6.402 6.786 4.491 12.703 8.991 18.061 12.798 5.34 3.834 10.184 6.89 14.329 9.124 4.14 2.246 7.625 3.56 10.034 4.277 1.19.417 2.153.592 2.782.765l.964.239-.035.151Z" fill="#1C4A20"/><path d="m306.512 76.005.963-.239c.633-.16 1.588-.365 2.78-.77 2.406-.732 5.883-2.062 9.994-4.355 4.126-2.265 8.858-5.497 14.059-9.509 5.212-4.002 10.927-8.76 17.608-13.426 3.342-2.324 6.972-4.574 10.97-6.47a41.903 41.903 0 0 1 13.124-3.87c4.699-.509 9.639-.111 14.371 1.36l1.772.56 1.741.671c.586.213 1.158.467 1.724.732.567.265 1.146.508 1.706.792 2.247 1.123 4.431 2.406 6.564 3.797 8.504 5.631 16.111 12.898 24.625 19.24 4.272 3.14 8.799 6.049 13.734 8.126 4.926 2.06 10.286 3.186 15.619 2.98 5.358-.133 10.571-1.683 15.369-3.952 4.823-2.261 9.237-5.286 13.466-8.456 8.448-6.374 16.18-13.539 24.901-18.946 4.335-2.698 8.99-4.904 13.807-6.085 4.89-1.262 9.87-1.168 14.527-.334 1.171.184 2.299.525 3.437.779 1.109.352 2.226.661 3.3 1.054 2.151.785 4.232 1.651 6.201 2.65 3.958 1.962 7.583 4.192 10.977 6.434 6.776 4.51 12.677 9.027 18.035 12.835 5.337 3.838 10.178 6.902 14.324 9.136 4.142 2.247 7.623 3.565 10.041 4.28 1.196.412 2.152.58 2.783.75l.961.235-.029.152-.972-.205c-.637-.15-1.606-.291-2.82-.668-2.455-.643-6.004-1.864-10.246-3.997-4.253-2.113-9.176-5.132-14.617-8.857-5.47-3.685-11.424-8.143-18.202-12.524-3.393-2.18-7.003-4.333-10.902-6.201-3.897-1.842-8.071-3.514-12.559-4.294-1.122-.183-2.248-.392-3.397-.45-.573-.037-1.147-.118-1.724-.121l-1.738.001c-.29.004-.582-.008-.872.01l-.871.078-1.752.155-1.719.303c-.575.11-1.147.179-1.738.367-4.665 1.156-9.11 3.295-13.393 5.89-8.583 5.22-16.342 12.319-24.924 18.67-4.312 3.145-8.832 6.164-13.796 8.415-4.948 2.23-10.354 3.717-15.83 3.747-5.482.119-10.92-1.131-15.875-3.297-4.984-2.136-9.524-5.096-13.793-8.274-8.56-6.336-16.229-13.562-24.791-18.923a66.274 66.274 0 0 0-6.544-3.606c-.555-.267-1.126-.493-1.686-.741a20.179 20.179 0 0 0-1.698-.682l-1.71-.62-1.734-.51c-.572-.185-1.157-.313-1.741-.438-.583-.12-1.162-.274-1.743-.37-1.169-.157-2.295-.38-3.502-.432-2.338-.249-4.648-.119-6.913.101-4.527.567-8.795 1.964-12.694 3.801-3.914 1.819-7.504 4-10.83 6.275-6.651 4.562-12.389 9.297-17.72 13.183-5.308 3.914-10.122 7.122-14.364 9.271-4.222 2.187-7.761 3.428-10.218 4.082-1.224.36-2.18.523-2.82.66-.641.131-.971.2-.971.2l-.035-.15Z" fill="#1C4A20"/><path d="m609.963 85.344-.971-.2c-.638-.148-1.6-.282-2.819-.654-2.465-.64-6.008-1.864-10.254-3.999-4.253-2.113-9.173-5.14-14.611-8.869-5.47-3.686-11.409-8.16-18.178-12.562-3.388-2.188-6.993-4.352-10.891-6.232-3.897-1.852-8.067-3.554-12.567-4.357-1.125-.188-2.254-.404-3.409-.467-.574-.04-1.15-.124-1.731-.13l-1.746-.006c-.292.003-.585-.011-.877.003l-.877.067-1.764.136-1.755.289c-.586.104-1.182.174-1.755.35-4.675 1.1-9.205 3.203-13.517 5.79-8.676 5.175-16.453 12.285-24.988 18.642-4.268 3.176-8.738 6.221-13.654 8.506-4.88 2.301-10.227 3.883-15.71 4.011-.348.011-.668.042-1.039.035l-1.013-.029c-.678-.034-1.344-.004-2.031-.09l-2.055-.216c-.681-.088-1.347-.234-2.024-.349-2.677-.54-5.32-1.303-7.823-2.379-5.036-2.102-9.63-5.037-13.944-8.184-8.613-6.335-16.266-13.551-24.736-18.956a69.27 69.27 0 0 0-6.476-3.637c-.548-.272-1.113-.503-1.666-.755a20.057 20.057 0 0 0-1.68-.697l-1.692-.636-1.717-.526c-.567-.192-1.146-.325-1.725-.455-.579-.128-1.15-.286-1.73-.388-1.165-.17-2.316-.413-3.481-.467-.569-.04-1.184-.111-1.71-.128l-1.77-.01c-.597-.022-1.155.031-1.717.071-.564.048-1.123.06-1.684.136-4.511.545-8.779 1.912-12.678 3.738-3.913 1.806-7.508 3.977-10.838 6.243-6.66 4.543-12.415 9.262-17.745 13.147-5.31 3.91-10.129 7.112-14.369 9.26-4.219 2.186-7.762 3.42-10.213 4.08-1.217.365-2.178.532-2.819.671l-.973.206-.029-.153.962-.234c.633-.158 1.583-.355 2.781-.756 2.414-.729 5.888-2.063 10.001-4.357 4.127-2.265 8.855-5.504 14.054-9.52 5.211-4.004 10.91-8.78 17.582-13.463 3.337-2.334 6.964-4.594 10.961-6.504 3.981-1.933 8.428-3.34 13.14-3.934.589-.08 1.197-.098 1.798-.15.603-.043 1.214-.098 1.793-.077l1.77.004c.657.019 1.224.088 1.842.13 1.219.056 2.422.302 3.642.479.606.106 1.203.267 1.808.4.605.135 1.21.273 1.8.47.596.18 1.192.362 1.789.544l1.759.655c.594.208 1.17.456 1.743.717.573.26 1.159.498 1.726.777 2.276 1.1 4.476 2.386 6.632 3.766 8.597 5.588 16.218 12.864 24.68 19.21 4.226 3.166 8.7 6.102 13.584 8.213 2.423 1.096 4.976 1.885 7.571 2.463.653.123 1.305.28 1.96.377l1.969.247c.652.097 1.343.082 2.012.129l1.012.049c.304.012.658-.012.986-.015 5.351-.036 10.623-1.49 15.488-3.689 4.873-2.227 9.337-5.225 13.61-8.364 8.496-6.367 16.21-13.521 24.838-18.971 4.306-2.707 8.873-4.95 13.682-6.186 4.8-1.309 9.791-1.258 14.427-.436 1.169.178 2.293.514 3.43.76 1.107.347 2.223.65 3.298 1.039 2.15.773 4.234 1.627 6.201 2.622 3.959 1.95 7.589 4.169 10.986 6.403 6.786 4.49 12.703 8.99 18.06 12.798 5.34 3.835 10.184 6.89 14.33 9.123 4.139 2.246 7.625 3.561 10.034 4.277 1.19.417 2.153.592 2.782.764l.963.24-.035.15Z" fill="#1C4A20"/><path fill-rule="evenodd" clip-rule="evenodd" d="M322.175 0c1.456 1.656 2.525 3.478 3.04 5.599.799 3.29.087 6.353-1.413 9.299-1.361 2.672-3.259 4.915-5.487 6.893-.306.271-.4.515-.325.931.284 1.566.512 3.14.772 4.776.268-.056.49-.109.714-.148 4.467-.796 9.74 2.106 8.929 8.541-.491 3.896-2.829 6.407-6.518 7.658-.467.159-.51.36-.447.776.267 1.754.632 3.505.722 5.27.127 2.482-.722 4.646-2.765 6.193-2.418 1.83-6.017 1.563-8.008-.551-1.301-1.381-1.445-3.631-.324-5.05.828-1.048 2.111-1.45 3.355-1.053 1.194.38 2.044 1.506 2.127 2.814.086 1.353-.638 2.598-1.827 3.132-.16.072-.326.131-.546.22.449.448.983.519 1.511.543 2.218.104 4.096-1.203 4.949-3.442a7.262 7.262 0 0 0 .388-3.898c-.255-1.48-.475-2.967-.72-4.518l-.638.058c-4.23.363-7.926-.762-10.547-4.236-3.719-4.926-3.382-11.086.687-15.78 1.765-2.038 3.846-3.734 5.908-5.45.318-.265.462-.492.389-.951-.504-3.151-.457-6.28.515-9.356.97-3.07 2.507-5.773 5.018-7.856.166-.135.339-.26.541-.414Zm-5.223 23.075c-.114.063-.184.085-.233.13-1.264 1.166-2.598 2.267-3.773 3.518-2.158 2.299-3.326 5.016-2.838 8.228.519 3.409 2.304 5.897 5.605 7.134 1.381.517 2.817.566 4.327.26l-1.805-11.272c-1.385.862-2.333 1.94-2.647 3.465-.402 1.946.537 3.381 1.891 4.657a2.336 2.336 0 0 1-.684-.178c-1.902-.877-2.808-2.464-3-4.46-.263-2.729 1.088-4.695 3.234-6.161.555-.38.718-.683.586-1.328-.269-1.307-.444-2.633-.663-3.993Zm.19-5.717c2.25-1.552 4.28-3.179 5.763-5.38 1.565-2.324 2.012-4.812.999-7.488-.39-1.028-1.022-1.17-1.782-.398-2.451 2.49-4.044 5.45-4.807 8.856a12.15 12.15 0 0 0-.173 4.41Zm3.956 24.723c.236-.089.423-.147.599-.228 1.877-.848 3.191-2.238 3.915-4.16.988-2.627.173-5.118-2.172-6.642-1.3-.846-2.695-.92-4.18-.434l1.838 11.464ZM370.423 60.523v-9.54c.2-.087.297-.04.34.163.213.987.743 1.77 1.52 2.41.623.512 1.111 1.142 1.199 1.972.044.422-.046.86-.071 1.29-.007.121-.026.25.005.363.279 1.021.022 1.929-.591 2.765.041-.127.085-.252.123-.38.041-.139.08-.278.112-.42.263-1.17-.032-2.149-.996-2.9-.448-.349-.889-.707-1.359-1.082v.312c0 1.877.002 3.754-.004 5.63a1.452 1.452 0 0 1-.093.529c-.384.933-1.683 1.609-2.672 1.403-.55-.114-.85-.565-.66-1.09.103-.286.283-.573.5-.789.568-.568 1.262-.875 2.085-.788.182.018.359.095.562.152Zm.357-7.337c.175.66.37 1.258.829 1.726.504.512 1.016 1.016 1.534 1.533.031-.679-.144-1.31-.638-1.789-.531-.512-1.122-.96-1.725-1.47ZM468.452 80.543l3.178-6.842 12.468 5.79-.135.292c-1.086 2.335-2.173 4.668-3.252 7.006-.177.385-.442.666-.825.823-.86.35-1.714.388-2.518-.147-.5-.334-.568-.911-.129-1.32a2.38 2.38 0 0 1 .877-.51c.715-.23 1.433-.2 2.093.206.157.096.286.242.438.374.797-1.719 1.597-3.44 2.403-5.175l-5.832-2.71c-.048.101-.088.19-.129.278-.833 1.793-1.669 3.583-2.496 5.378-.16.348-.399.606-.742.758-.87.386-1.739.435-2.567-.103-.538-.348-.592-.95-.111-1.378.702-.63 1.542-.703 2.423-.487.377.092.7.285.935.644l2.417-5.203-5.843-2.713-.131.283c-.828 1.783-1.664 3.566-2.482 5.354-.165.36-.408.626-.759.778-.86.375-1.726.425-2.544-.106-.562-.366-.586-.966-.09-1.421.835-.768 2.671-.755 3.285.12.01.01.031.013.068.03Zm8.824-3.028c-1.957-.91-3.891-1.807-5.826-2.705-.068.144-.126.27-.187.403l5.826 2.706.187-.404Zm6.102 2.834-5.822-2.704-.186.402 5.822 2.704c.067-.142.123-.265.186-.402ZM600.038 28.681l1.024-.358c0 .626.004 1.22-.007 1.814-.001.052-.093.122-.157.147-.226.094-.461.166-.687.26-.064.026-.155.096-.157.148-.011.586-.007 1.172-.007 1.795l1.015-.355c0 .629.004 1.22-.007 1.813-.001.052-.093.122-.157.15a5.483 5.483 0 0 1-.637.232c-.171.047-.222.135-.219.309.009.777.003 1.553.003 2.348h-.422v-2.42c-.498.18-.955.34-1.405.52-.056.023-.097.158-.098.242-.009.607-.005 1.215-.005 1.822v.289h-.42v-2.163l-1.034.359c0-.618-.005-1.204.007-1.79.002-.06.095-.143.164-.172.224-.096.461-.163.684-.264.07-.031.157-.131.158-.2.014-.562.008-1.123.008-1.734l-1.021.349c0-.62-.002-1.213.004-1.805.001-.047.062-.096.104-.135.024-.024.065-.028.099-.042.268-.107.638-.142.773-.34.136-.199.039-.559.041-.849v-1.68h.433v2.413c.489-.177.942-.33 1.383-.51.066-.025.113-.171.115-.262.009-.607.003-1.215.002-1.823v-.28h.424l-.001 2.172Zm-1.921 4.514c.482-.175.934-.332 1.378-.507.056-.021.11-.133.112-.206.013-.37.007-.741.008-1.112v-.612c-.497.18-.937.338-1.376.505-.051.018-.116.095-.116.146-.009.585-.006 1.17-.006 1.786ZM566.582 33.8v-7.833l-2.049.761c-2.197.819-4.392 1.642-6.593 2.45-.258.094-.339.218-.338.489.011 2.665-.035 5.332.024 7.996.028 1.294-.573 2.108-1.613 2.702-.686.392-1.418.623-2.222.467-.921-.179-1.328-.92-.925-1.767.559-1.173 1.565-1.778 2.807-1.964.467-.07.962.05 1.491.087v-.337c0-3.25.006-6.5-.007-9.748-.002-.307.089-.435.377-.54 2.415-.886 4.824-1.791 7.236-2.688.72-.269 1.442-.529 2.21-.81.011.178.025.313.025.447.003 3.706 0 7.413.008 11.119.001.601-.249 1.083-.653 1.49-.863.872-1.881 1.38-3.142 1.198-.904-.13-1.287-.852-.968-1.715.465-1.262 2.667-2.618 4.332-1.804Zm-8.945-4.924c.149-.052.268-.091.384-.135l8.049-3.002c.581-.216.582-.214.494-.899-.11.037-.216.07-.319.11l-8.09 3.01c-.583.217-.584.216-.518.916ZM410.285 24.349c9.378-.633 18.753-1.263 28.13-1.907.387-.026.572.08.733.44 1.903 4.254 3.825 8.5 5.743 12.746l.225.498c.377-.272.67-.554 1.019-.726 1.708-.84 3.405-.71 5.054.175.308.167.589.428.817.7.688.827.582 1.843-.304 2.462-1.63 1.136-3.371 1.038-5.125.319-.77-.316-1.292-.888-1.636-1.657-1.615-3.608-3.255-7.204-4.862-10.816-.18-.403-.385-.515-.815-.483-3.972.285-7.946.548-11.919.817-.368.026-.735.057-1.148.089l4.579 10.14c.404-.298.757-.654 1.183-.855 1.637-.772 3.278-.659 4.858.175.785.414 1.424 1.025 1.327 2.005-.095.974-.844 1.44-1.673 1.744-2.588.947-5.001-.08-6.131-2.583-1.514-3.355-3.037-6.706-4.534-10.07-.187-.421-.403-.537-.855-.503-3.249.24-6.5.451-9.75.672-1.097.075-2.193.148-3.324.224 1.546 3.427 3.065 6.79 4.584 10.154.053-.02.1-.024.116-.047 1.185-1.646 4.745-1.712 6.455-.22 1.101.96 1.033 2.199-.196 2.976-1.316.833-2.747.827-4.193.427-1.142-.316-1.936-.994-2.436-2.128-2.075-4.694-4.207-9.36-6.318-14.037l-.303-.67c.309-.027.504-.048.699-.061Zm13.802 1.25c-4.112.277-8.225.554-12.338.833-.16.011-.319.027-.479.04.195.923.228.95 1.123.889l12.229-.827c.195-.013.39-.033.625-.053-.293-.94-.293-.942-1.16-.883Zm2.571.805 12.505-.849c.105-.007.211-.02.316-.03-.113-.87-.201-.947-1.037-.89-4.152.275-8.303.553-12.453.832-.138.01-.276.03-.417.045.208.925.242.95 1.086.892ZM388.491 32.878c1.431-.834 2.947-.842 4.451-.271a4.428 4.428 0 0 1 1.559 1.03c.776.8.598 1.87-.312 2.53-1.635 1.185-4.559 1.017-6.024-.37-.254-.242-.457-.566-.605-.888-1.549-3.418-3.083-6.843-4.621-10.267l-.256-.57c-.55 1.07-1.06 2.084-1.59 3.088-1.144 2.16-.882 4.187.559 6.107.174.232.359.455.547.674.173.202.357.395.537.592-1.805-1.022-3.019-2.467-3.346-4.56-.036-.231-.175-.451-.288-.666-.399-.764-.922-1.487-1.187-2.296-.52-1.584-.148-3.134.568-4.58.894-1.804 1.218-3.665.797-5.64-.087-.407.05-.57.488-.576l7.82 17.403c.322-.268.583-.553.903-.74Zm-9.51-8.256c-.511 1.279-.311 2.574.301 3.786.521-1.367 1.043-2.706 1.541-4.053.455-1.23.32-2.48.1-3.829-.684 1.425-1.396 2.728-1.942 4.096ZM498.109 33.903l7.945-12.852c-.241-.342-.459-.371-.723-.094-1.381 1.447-3.072 2.244-5.056 2.503-1.193.156-2.345.513-3.316 1.27-1.835 1.429-2.448 3.373-2.296 5.627.141-.502.26-1.01.426-1.504.766-2.31 2.276-3.732 4.769-3.99 1.127-.116 2.249-.273 3.403-.414-.066.124-.131.264-.211.395-1.925 3.116-3.825 6.248-5.79 9.338-.686 1.08-.795 2.162-.39 3.316.497 1.412 1.302 2.595 2.743 3.198 1.256.525 2.298-.089 2.509-1.437.311-1.997-1.43-5.173-4.013-5.356ZM386.371 76.2c-1.059-1.274-1.623-2.74-1.571-4.403.053-1.68 1.133-2.484 2.777-2.126.963.211 1.784.688 2.555 1.276.102.078.215.141.394.256V60.98h.812v19.142c-1.813-1.224-3.611-2.293-4.967-3.923Zm4.136-3.495c-.001-.1-.027-.243-.096-.298-.63-.5-1.293-.962-2.14-.938-.533.016-.842.373-.987.87-.217.753-.055 1.476.192 2.184.485 1.386 1.606 2.739 3.034 3.64 0-1.875.002-3.667-.003-5.458ZM539.916 63.426c4.403 1.64 8.805 3.282 13.21 4.918.182.067.245.154.244.351-.007 2.33-.004 4.659-.004 6.99v.272c.227-.046.419-.113.614-.121.951-.03 1.697.376 2.266 1.12.107.14.181.316.228.487.145.518-.113.96-.645 1.06-.976.182-1.749-.22-2.4-.91-.286-.302-.406-.67-.404-1.091.006-1.977-.001-3.953.009-5.93.001-.221-.069-.312-.271-.387-1.87-.688-3.735-1.386-5.601-2.08-.172-.064-.346-.126-.541-.196v5.562c.246-.05.48-.141.716-.146.905-.015 1.63.373 2.178 1.08.273.35.438.76.193 1.187-.245.424-.682.481-1.122.45-1.374-.101-2.262-1.065-2.262-2.44 0-1.84-.004-3.68.006-5.521.001-.23-.073-.328-.286-.405-1.53-.559-3.055-1.131-4.582-1.7l-1.561-.582v5.571c.028.002.05.01.062.002.88-.505 2.515.197 2.988 1.228.305.664.018 1.215-.702 1.316-.77.108-1.422-.188-1.998-.668-.455-.379-.678-.852-.673-1.471.02-2.566.009-5.132.009-7.697v-.367c.144.053.238.083.329.118Zm6.033 3.408c-1.931-.72-3.863-1.44-5.794-2.158-.075-.028-.151-.053-.227-.081-.101.462-.091.48.329.636L546 67.37c.092.035.184.067.296.105.059-.49.059-.49-.347-.64Zm1.005.897 5.874 2.187.15.05c.127-.42.103-.472-.289-.62l-5.847-2.182c-.065-.024-.131-.044-.199-.067-.096.465-.086.484.311.632ZM471.458 48.018c.619.49 1.065 1.098 1.071 1.925.004.634-.446.987-1.064.863-.778-.158-1.29-.665-1.671-1.324-.303-.522-.347-1.049-.116-1.636.929-2.363 1.827-4.737 2.736-7.105.04-.106.081-.21.119-.313l6.537 2.507-2.711 7.069c.547-.005.753.025 1.123.253.737.455 1.243 1.088 1.326 1.977.068.713-.407 1.121-1.104.97-.742-.159-1.239-.651-1.61-1.28-.322-.544-.374-1.096-.128-1.713.714-1.784 1.386-3.585 2.075-5.38l.103-.267-6.019-2.309-2.056 5.361c.565-.086 1.003.096 1.389.402Zm.794-6.066 5.991 2.298.157-.41-5.991-2.298-.157.41ZM435.82 68.39c-.742-.891-1.136-1.918-1.099-3.084.037-1.175.794-1.738 1.944-1.488.673.147 1.249.483 1.788.892.072.055.151.1.276.18v-7.156h.568v13.4c-1.269-.855-2.528-1.605-3.477-2.745Zm2.895-2.447c-.001-.073-.019-.171-.067-.21-.441-.349-.906-.674-1.499-.657-.373.01-.589.261-.691.61-.152.527-.038 1.032.135 1.527.339.972 1.125 1.918 2.123 2.55.001-1.313.002-2.568-.001-3.82Z" fill="#1C4A20"/></svg>