<svg width="24" height="24" viewBox="0 0 24 24" fill="none" xmlns="http://www.w3.org/2000/svg">
<path fill-rule="evenodd" clip-rule="evenodd" d="M5.22945 0.087515C4.37795 0.327185 3.70732 0.975462 3.4288 1.82811C3.33043 2.12933 3.32937 2.18895 3.33617 7.06635L3.3431 11.9999L3.09009 12.0009C2.78563 12.0022 2.51027 12.1169 2.29759 12.3311C1.99864 12.6321 1.99969 12.6182 2.00002 16.1451C2.00017 18.318 2.01701 19.395 2.0528 19.5212C2.18161 19.9757 2.52099 20.2529 2.9986 20.2938L3.30626 20.3202L3.31837 21.0936C3.33153 21.9356 3.37607 22.1542 3.63837 22.6633C3.82148 23.0188 4.32369 23.5097 4.70312 23.7042C5.31423 24.0174 4.84226 23.9998 12.6546 23.9998C20.4324 23.9998 19.9612 24.0169 20.5769 23.7126C20.9825 23.512 21.5065 22.9924 21.7052 22.5936C22.0128 21.9764 21.9983 22.4089 21.9992 13.8513L22 6.06999L18.9017 3.03499L15.8035 0L10.66 0.0033281C5.94003 0.00642183 5.49289 0.0133124 5.22945 0.087515ZM15.1578 3.27485C15.1578 4.21375 15.1792 5.06738 15.2063 5.20843C15.3493 5.95257 15.9562 6.53508 16.7155 6.6569C16.8719 6.68198 17.7448 6.70265 18.6552 6.70279L20.3105 6.70308L20.3373 14.093C20.3586 19.9904 20.3517 21.5294 20.3031 21.7129C20.2322 21.9806 20.0451 22.1948 19.7751 22.3172C19.5916 22.4005 19.298 22.404 12.6458 22.404C6.0017 22.404 5.69983 22.4004 5.51653 22.3175C5.06499 22.1134 4.96628 21.8731 4.96628 20.9784V20.2977L11.3933 20.2855L17.8203 20.2733L18.0199 20.1439C18.1297 20.0728 18.2788 19.9251 18.3513 19.8158L18.4832 19.617L18.4964 16.2145L18.5095 12.812L18.3744 12.5585C18.2849 12.3908 18.1672 12.2574 18.0263 12.1642L17.8133 12.0233L11.3891 12.0111L4.96499 11.9989L4.97758 7.10503L4.99021 2.21117L5.13437 2.00792C5.21868 1.8891 5.36701 1.76085 5.49141 1.69921L5.70428 1.59374H10.431H15.1578V3.27485ZM6.6308 14.1299C7.60278 14.2112 8.17757 15.071 7.84068 15.9396C7.70723 16.2836 7.54814 16.463 7.23153 16.6265C6.8964 16.7996 6.55889 16.8749 6.11769 16.8749H5.79055L5.75735 17.0917C5.73912 17.211 5.73945 17.5591 5.75806 17.8652L5.79199 18.4217H5.30734H4.82274V16.2889C4.82274 14.2913 4.82805 14.1558 4.90647 14.15C5.33662 14.1183 6.11477 14.0846 6.21032 14.0936C6.27611 14.0997 6.46535 14.1161 6.6308 14.1299ZM10.9667 14.2055C11.8732 14.4223 12.4046 15.046 12.4657 15.9649C12.5507 17.2448 11.9232 18.0992 10.708 18.3583C10.3394 18.4369 8.76906 18.4701 8.65609 18.4016C8.6181 18.3787 8.60269 17.7622 8.60269 16.2627V14.1561L8.71035 14.15C10.1072 14.0699 10.4335 14.078 10.9667 14.2055ZM15.8176 14.4942L15.8037 14.8792L14.9903 14.8895L14.1769 14.8998L14.1633 15.3952L14.1498 15.8905H14.9409H15.732V16.2889V16.6874H14.9425H14.153V17.5546V18.4217H13.6745H13.1961V16.2655V14.1093H14.5138H15.8315L15.8176 14.4942ZM5.96166 14.8026C5.79189 14.8171 5.78342 14.8263 5.75251 15.0281C5.70017 15.3701 5.75036 16.078 5.83051 16.1276C6.00759 16.2374 6.55693 16.1335 6.75621 15.9525C7.0876 15.6514 7.03296 15.0784 6.65501 14.8914C6.50315 14.8163 6.2218 14.7803 5.96166 14.8026ZM9.58304 14.9179C9.56855 14.9759 9.56276 15.6245 9.57017 16.3593L9.58357 17.6952L10.0142 17.6915C10.5087 17.6872 10.7781 17.5958 11.0333 17.3458C11.2571 17.1266 11.3747 16.8732 11.421 16.5108C11.5079 15.8306 11.3226 15.2996 10.9088 15.0425C10.6158 14.8605 10.4236 14.813 9.97922 14.8127C9.6352 14.8124 9.60749 14.8197 9.58304 14.9179Z" fill="#108994"/>
</svg>
