<svg width="105" height="701" viewBox="0 0 105 701" fill="none" xmlns="http://www.w3.org/2000/svg">
<path d="M91.74 672.46L91.74 675.71L5.28999 698.2L92 698.2L92 700.8L0.999994 700.8L0.999993 696.38L87.32 674.02L0.999991 651.66L0.999991 647.24L92 647.24L92 650.1L5.28999 650.1L91.74 672.46ZM70.55 629.276L92 634.606L92 637.206L0.869992 615.236L0.869991 611.206L92 588.716L92 591.576L70.55 596.906L70.55 629.276ZM67.95 628.756L67.95 597.426L4.24999 613.286L67.95 628.756ZM46.76 568.921L57.16 575.811L92 575.811L92 578.671L0.999988 578.671L0.999988 575.811L52.35 575.811L0.999987 542.011L0.999986 538.891L44.03 567.101L92 536.551L92 539.671L46.76 568.921ZM0.349986 507.643C0.349986 504.177 0.956652 501.23 2.16999 498.803C3.38332 496.377 5.02998 494.427 7.10998 492.953C9.18999 491.393 11.66 490.267 14.52 489.573C17.2933 488.88 20.24 488.533 23.36 488.533L30.38 488.533L30.38 491.393L23.23 491.393C20.4567 491.393 17.8567 491.697 15.43 492.303C12.9167 492.823 10.75 493.733 8.92998 495.033C7.10999 496.247 5.67999 497.893 4.63998 499.973C3.51332 502.053 2.94998 504.567 2.94998 507.513C2.94998 510.547 3.51332 513.103 4.63999 515.183C5.67999 517.263 7.10999 518.953 8.92998 520.253C10.75 521.467 12.9167 522.377 15.43 522.983C17.8567 523.503 20.4567 523.763 23.23 523.763L69.77 523.763C72.5433 523.763 75.1433 523.503 77.57 522.983C79.9967 522.377 82.12 521.467 83.94 520.253C85.76 518.953 87.2333 517.263 88.36 515.183C89.4 513.103 89.92 510.547 89.92 507.513C89.92 504.567 89.4 502.053 88.36 499.973C87.2333 497.893 85.76 496.247 83.94 495.033C82.12 493.733 79.9967 492.823 77.57 492.303C75.1433 491.697 72.5433 491.393 69.77 491.393L59.76 491.393L59.76 488.533L69.64 488.533C72.76 488.533 75.75 488.88 78.61 489.573C81.3833 490.267 83.81 491.393 85.89 492.953C87.97 494.427 89.6167 496.377 90.83 498.803C92.0433 501.23 92.65 504.177 92.65 507.643C92.65 511.11 92.0433 514.057 90.83 516.483C89.6167 518.823 87.97 520.773 85.89 522.333C83.81 523.807 81.3833 524.89 78.61 525.583C75.75 526.277 72.76 526.623 69.64 526.623L23.36 526.623C20.24 526.623 17.2933 526.277 14.52 525.583C11.66 524.89 9.18999 523.807 7.10998 522.333C5.02999 520.773 3.38332 518.823 2.16999 516.483C0.956653 514.057 0.349986 511.11 0.349986 507.643ZM48.84 458.878L92 474.868L92 478.378L0.999984 478.378L0.999984 475.648L86.54 475.648L0.999982 443.538L0.999982 439.638L92 439.638L92 442.368L5.41999 442.368L48.84 458.878ZM91.74 400.907L91.74 404.157L5.28998 426.647L92 426.647L92 429.247L0.999982 429.247L0.999982 424.827L87.32 402.467L0.99998 380.107L0.999979 375.687L92 375.687L92 378.547L5.28998 378.547L91.74 400.907ZM104.74 294.377L92 294.377L92 342.607L104.74 342.607L104.74 345.467L89.27 345.467L89.27 338.967C87.2767 336.974 84.9367 335.717 82.25 335.197C79.5633 334.677 76.7033 334.331 73.67 334.157L0.999977 330.387L0.999976 299.577L89.27 299.577L89.27 291.517L104.74 291.517L104.74 294.377ZM73.8 331.297C76.8333 331.471 79.65 331.774 82.25 332.207C84.85 332.641 87.19 333.811 89.27 335.717L89.27 302.437L3.72998 302.437L3.72998 327.657L73.8 331.297ZM23.36 281.477C20.1533 281.477 17.1633 281.13 14.39 280.437C11.6166 279.744 9.18998 278.617 7.10997 277.057C5.02997 275.497 3.38331 273.504 2.16998 271.077C0.956642 268.65 0.349975 265.704 0.349975 262.237C0.349975 258.77 0.956641 255.824 2.16997 253.397C3.38331 250.884 5.02997 248.847 7.10997 247.287C9.18998 245.727 11.6166 244.6 14.39 243.907C17.1633 243.127 20.1533 242.737 23.36 242.737L69.64 242.737C72.8466 242.737 75.8366 243.127 78.61 243.907C81.3833 244.6 83.81 245.727 85.89 247.287C87.97 248.847 89.6166 250.884 90.83 253.397C92.0433 255.824 92.65 258.77 92.65 262.237C92.65 265.704 92.0433 268.65 90.83 271.077C89.6166 273.504 87.97 275.497 85.89 277.057C83.81 278.617 81.3833 279.744 78.61 280.437C75.8366 281.13 72.8466 281.477 69.64 281.477L23.36 281.477ZM69.77 278.617C72.5433 278.617 75.1866 278.357 77.7 277.837C80.1266 277.23 82.25 276.277 84.07 274.977C85.89 273.677 87.3633 271.987 88.49 269.907C89.53 267.827 90.05 265.27 90.05 262.237C90.05 259.204 89.53 256.647 88.49 254.567C87.3633 252.4 85.89 250.667 84.07 249.367C82.25 248.067 80.1266 247.114 77.7 246.507C75.1866 245.9 72.5433 245.597 69.77 245.597L23.23 245.597C20.4566 245.597 17.8566 245.9 15.43 246.507C12.9166 247.114 10.75 248.067 8.92997 249.367C7.10998 250.667 5.67998 252.4 4.63997 254.567C3.51331 256.647 2.94997 259.204 2.94997 262.237C2.94997 265.27 3.51331 267.827 4.63997 269.907C5.67998 271.987 7.10998 273.677 8.92997 274.977C10.75 276.277 12.9166 277.23 15.43 277.837C17.8566 278.357 20.4566 278.617 23.23 278.617L69.77 278.617ZM0.999972 214.53C0.999972 211.063 1.56331 208.117 2.68997 205.69C3.72998 203.263 5.24664 201.313 7.23998 199.84C9.14664 198.367 11.4433 197.327 14.13 196.72C16.8166 196.027 19.7633 195.68 22.97 195.68L32.07 195.68C39.35 195.68 44.7233 197.37 48.19 200.75C51.6566 204.043 53.39 209.33 53.39 216.61L53.39 229.61L92 229.61L92 232.47L0.999973 232.47L0.999972 214.53ZM50.66 216.61C50.66 210.197 49.23 205.603 46.37 202.83C43.4233 199.97 38.7 198.54 32.2 198.54L22.84 198.54C20.0666 198.54 17.51 198.8 15.17 199.32C12.83 199.84 10.8366 200.75 9.18997 202.05C7.45664 203.263 6.11331 204.91 5.15997 206.99C4.20664 208.983 3.72998 211.497 3.72998 214.53L3.72998 229.61L50.66 229.61L50.66 216.61ZM23.36 185.881C20.1533 185.881 17.1633 185.535 14.39 184.841C11.6166 184.148 9.18997 183.021 7.10997 181.461C5.02997 179.901 3.3833 177.908 2.16997 175.481C0.956638 173.055 0.349971 170.108 0.349971 166.641C0.349971 163.175 0.956637 160.228 2.16997 157.801C3.3833 155.288 5.02997 153.251 7.10997 151.691C9.18997 150.131 11.6166 149.005 14.39 148.311C17.1633 147.531 20.1533 147.141 23.36 147.141L69.64 147.141C72.8466 147.141 75.8366 147.531 78.61 148.311C81.3833 149.004 83.81 150.131 85.89 151.691C87.97 153.251 89.6166 155.288 90.83 157.801C92.0433 160.228 92.65 163.174 92.65 166.641C92.65 170.108 92.0433 173.055 90.83 175.481C89.6166 177.908 87.97 179.901 85.89 181.461C83.81 183.021 81.3833 184.148 78.61 184.841C75.8366 185.535 72.8466 185.881 69.64 185.881L23.36 185.881ZM69.77 183.021C72.5433 183.021 75.1866 182.761 77.7 182.241C80.1266 181.635 82.25 180.681 84.07 179.381C85.89 178.081 87.3633 176.391 88.49 174.311C89.53 172.231 90.05 169.674 90.05 166.641C90.05 163.608 89.53 161.051 88.49 158.971C87.3633 156.804 85.89 155.071 84.07 153.771C82.25 152.471 80.1266 151.518 77.7 150.911C75.1866 150.304 72.5433 150.001 69.77 150.001L23.23 150.001C20.4566 150.001 17.8566 150.305 15.43 150.911C12.9166 151.518 10.75 152.471 8.92997 153.771C7.10997 155.071 5.67997 156.805 4.63997 158.971C3.5133 161.051 2.94997 163.608 2.94997 166.641C2.94997 169.675 3.5133 172.231 4.63997 174.311C5.67997 176.391 7.10997 178.081 8.92997 179.381C10.75 180.681 12.9166 181.635 15.43 182.241C17.8566 182.761 20.4566 183.021 23.23 183.021L69.77 183.021ZM47.8 134.014L92 134.014L92 136.874L0.999969 136.874L0.999969 134.014L45.2 134.014L45.2 101.124L0.999967 101.124L0.999967 98.2642L92 98.2642L92 101.124L47.8 101.124L47.8 134.014ZM48.84 68.3703L92 84.3603L92 87.8703L0.999967 87.8703L0.999967 85.1403L86.54 85.1403L0.999965 53.0303L0.999965 49.1303L92 49.1303L92 51.8603L5.41997 51.8603L48.84 68.3703ZM47.8 35.8795L92 35.8794L92 38.7394L0.999965 38.7395L0.999965 35.8795L45.2 35.8795L45.2 2.98945L0.999963 2.98945L0.999963 0.129451L92 0.129447L92 2.98945L47.8 2.98945L47.8 35.8795Z" fill="url(#paint0_linear_143_121)" fill-opacity="0.1"/>
<defs>
<linearGradient id="paint0_linear_143_121" x1="183.474" y1="684.808" x2="-56.2925" y2="11.9205" gradientUnits="userSpaceOnUse">
<stop stop-color="#B1916B"/>
<stop offset="1" stop-color="#FDEAB1"/>
</linearGradient>
</defs>
</svg>
