<svg width="22" height="22" viewBox="0 0 22 22" fill="none" xmlns="http://www.w3.org/2000/svg">
<path fill-rule="evenodd" clip-rule="evenodd" d="M9.92103 2.054C7.88586 2.31585 6.08905 3.19544 4.6429 4.63792C3.36284 5.91467 2.49938 7.5243 2.16297 9.26078C2.03775 9.9071 2 10.3115 2 11.0062C2 13.4123 2.93134 15.6505 4.6429 17.3577C6.82512 19.5343 9.87572 20.4366 12.9015 19.8002C15.6561 19.2209 18.0812 17.2405 19.2424 14.622C20.2525 12.3441 20.2525 9.65151 19.2424 7.37356C18.0733 4.73717 15.6313 2.75519 12.8447 2.18095C11.9746 2.00167 10.7435 1.94821 9.92103 2.054ZM12.0713 3.14304C14.8189 3.51792 17.2011 5.33207 18.2885 7.87778C18.7262 8.90263 18.9167 9.84844 18.9167 10.9978C18.9167 13.1096 18.1454 15.0141 16.6831 16.5134C15.3956 17.8335 13.794 18.6317 11.9483 18.8734C11.5285 18.9284 10.4446 18.9283 10.05 18.8732C8.75698 18.6929 7.68021 18.2967 6.65776 17.625C4.69844 16.3377 3.42942 14.2995 3.1224 11.9468C3.06636 11.5173 3.06636 10.4783 3.1224 10.0488C3.31957 8.53802 3.89601 7.17986 4.83044 6.02447C6.58306 3.85747 9.32129 2.76784 12.0713 3.14304ZM10.7264 4.21422C10.4917 4.35727 10.4721 4.43318 10.4721 5.19851C10.4721 5.82055 10.4786 5.89446 10.542 5.99843C10.749 6.33791 11.2493 6.33791 11.4563 5.99843C11.5197 5.89446 11.5262 5.82055 11.5262 5.19851C11.5262 4.57648 11.5197 4.50256 11.4563 4.3986C11.3072 4.15412 10.9663 4.06797 10.7264 4.21422ZM6.41169 6.00531C6.16214 6.06362 6.00258 6.25985 5.99875 6.51316C5.99259 6.92044 6.39017 7.17157 6.75868 6.9932C7.13661 6.81029 7.15749 6.2769 6.79468 6.07259C6.65937 5.99639 6.53978 5.9754 6.41169 6.00531ZM15.3118 6.02226C14.9755 6.14323 14.8418 6.47952 15.0107 6.77999C15.2792 7.25757 16.0026 7.06693 16.0026 6.5186C16.0026 6.16042 15.644 5.90279 15.3118 6.02226ZM10.7264 7.37746C10.6634 7.41587 10.5804 7.49882 10.542 7.56184C10.4748 7.67203 10.4721 7.74211 10.472 9.40914C10.4719 10.8471 10.4804 11.158 10.5223 11.2368C10.5832 11.3514 13.8317 14.5942 13.9409 14.6494C14.0629 14.7111 14.3086 14.6956 14.4356 14.6181C14.6653 14.4781 14.7613 14.1508 14.6397 13.922C14.612 13.8698 13.9002 13.1392 13.0579 12.2984L11.5264 10.7697L11.5263 9.223C11.5262 7.74172 11.5232 7.67154 11.4563 7.56184C11.3072 7.31736 10.9663 7.23121 10.7264 7.37746ZM4.39887 10.5407C4.05933 10.7477 4.05933 11.2479 4.39887 11.4549C4.50285 11.5183 4.57678 11.5248 5.19891 11.5248C5.82105 11.5248 5.89498 11.5183 5.99896 11.4549C6.3385 11.2479 6.3385 10.7477 5.99896 10.5407C5.89498 10.4773 5.82105 10.4708 5.19891 10.4708C4.57678 10.4708 4.50285 10.4773 4.39887 10.5407ZM15.9993 10.5407C15.6598 10.7477 15.6598 11.2479 15.9993 11.4549C16.1033 11.5183 16.1772 11.5248 16.7994 11.5248C17.5648 11.5248 17.6407 11.5051 17.7838 11.2705C17.9301 11.0307 17.8439 10.6898 17.5994 10.5407C17.4954 10.4773 17.4215 10.4708 16.7994 10.4708C16.1772 10.4708 16.1033 10.4773 15.9993 10.5407ZM6.30324 14.9842C5.97221 15.1284 5.89118 15.5859 6.15075 15.8454C6.58299 16.2776 7.28678 15.7479 6.98756 15.2156C6.85222 14.9748 6.55543 14.8744 6.30324 14.9842ZM15.2125 15.008C14.7389 15.2902 14.9345 16.0057 15.483 15.9974C15.9952 15.9897 16.1904 15.3402 15.7737 15.0297C15.632 14.9241 15.3704 14.914 15.2125 15.008ZM10.7264 15.8128C10.4917 15.9558 10.4721 16.0317 10.4721 16.7971C10.4721 17.4191 10.4786 17.493 10.542 17.597C10.6911 17.8415 11.032 17.9276 11.2719 17.7814C11.5065 17.6383 11.5262 17.5624 11.5262 16.7971C11.5262 16.175 11.5197 16.1011 11.4563 15.9972C11.3586 15.837 11.1895 15.7429 10.9991 15.7429C10.9032 15.7429 10.7959 15.7704 10.7264 15.8128Z" fill="white" fill-opacity="0.6"/>
</svg>
